{
	"asset": {
		"generator": "Tilt Brush 23.2.28f36f08b",
		"version": "1.1",
		"copyright": "Unknown."
	},
	"buffers": {
		"buffer_sketch": {
			"byteLength": 433664,
			"type": "arraybuffer",
			"uri": "sketch.bin"
		}
	},
	"accessors": {
		"accessor_position_Disco_4391aaaa-df73-4396-9e33-31e4e4930b27_0_i0": {
			"bufferView": "vec3BufferView",
			"byteOffset": 0,
			"byteStride": 12,
			"componentType": 5126,
			"count": 4762,
			"max": [ 0.106075503, 0.503787994, 0.0417724587 ],
			"min": [ -0.223293066, 0.30077365, -0.418507159 ],
			"type": "VEC3"
		},
		"accessor_normal_Disco_4391aaaa-df73-4396-9e33-31e4e4930b27_0_i0": {
			"bufferView": "vec3BufferView",
			"byteOffset": 57144,
			"byteStride": 12,
			"componentType": 5126,
			"count": 4762,
			"type": "VEC3"
		},
		"accessor_color_Disco_4391aaaa-df73-4396-9e33-31e4e4930b27_0_i0": {
			"bufferView": "vec4BufferView",
			"byteOffset": 0,
			"byteStride": 16,
			"componentType": 5126,
			"count": 4762,
			"type": "VEC4"
		},
		"accessor_tangent_Disco_4391aaaa-df73-4396-9e33-31e4e4930b27_0_i0": {
			"bufferView": "vec4BufferView",
			"byteOffset": 76192,
			"byteStride": 16,
			"componentType": 5126,
			"count": 4762,
			"type": "VEC4"
		},
		"accessor_uv0_Disco_4391aaaa-df73-4396-9e33-31e4e4930b27_0_i0": {
			"bufferView": "vec3BufferView",
			"byteOffset": 114288,
			"byteStride": 12,
			"componentType": 5126,
			"count": 4762,
			"type": "VEC3"
		},
		"accessor_indices_0_Disco_4391aaaa-df73-4396-9e33-31e4e4930b27_0_i0": {
			"bufferView": "ushortBufferView",
			"byteOffset": 0,
			"byteStride": 0,
			"componentType": 5123,
			"count": 21216,
			"max": [ 4761 ],
			"min": [ 0 ],
			"type": "SCALAR"
		},
		"accessor_position_Comet_1caa6d7d-f015-3f54-3a4b-8b5354d39f81_0_i0": {
			"bufferView": "vec3BufferView",
			"byteOffset": 171432,
			"byteStride": 12,
			"componentType": 5126,
			"count": 870,
			"max": [ 0.0622585528, 0.567539334, 0.0240463447 ],
			"min": [ -0.273153961, 0.284395486, -0.400827646 ],
			"type": "VEC3"
		},
		"accessor_normal_Comet_1caa6d7d-f015-3f54-3a4b-8b5354d39f81_0_i0": {
			"bufferView": "vec3BufferView",
			"byteOffset": 181872,
			"byteStride": 12,
			"componentType": 5126,
			"count": 870,
			"type": "VEC3"
		},
		"accessor_color_Comet_1caa6d7d-f015-3f54-3a4b-8b5354d39f81_0_i0": {
			"bufferView": "vec4BufferView",
			"byteOffset": 152384,
			"byteStride": 16,
			"componentType": 5126,
			"count": 870,
			"type": "VEC4"
		},
		"accessor_tangent_Comet_1caa6d7d-f015-3f54-3a4b-8b5354d39f81_0_i0": {
			"bufferView": "vec4BufferView",
			"byteOffset": 166304,
			"byteStride": 16,
			"componentType": 5126,
			"count": 870,
			"type": "VEC4"
		},
		"accessor_uv0_Comet_1caa6d7d-f015-3f54-3a4b-8b5354d39f81_0_i0": {
			"bufferView": "vec3BufferView",
			"byteOffset": 192312,
			"byteStride": 12,
			"componentType": 5126,
			"count": 870,
			"type": "VEC3"
		},
		"accessor_indices_0_Comet_1caa6d7d-f015-3f54-3a4b-8b5354d39f81_0_i0": {
			"bufferView": "ushortBufferView",
			"byteOffset": 42432,
			"byteStride": 0,
			"componentType": 5123,
			"count": 4128,
			"max": [ 869 ],
			"min": [ 0 ],
			"type": "SCALAR"
		}
	},
	"bufferViews": {
		"ushortBufferView": {
			"buffer": "buffer_sketch",
			"byteLength": 50688,
			"byteOffset": 0,
			"target": 34963
		},
		"vec3BufferView": {
			"buffer": "buffer_sketch",
			"byteLength": 202752,
			"byteOffset": 50688,
			"target": 34962
		},
		"vec4BufferView": {
			"buffer": "buffer_sketch",
			"byteLength": 180224,
			"byteOffset": 253440,
			"target": 34962
		}
	},
	"meshes": {
		"mesh_Disco_4391aaaa-df73-4396-9e33-31e4e4930b27_0_i0": {
			"name": "mesh_Disco_4391aaaa-df73-4396-9e33-31e4e4930b27_0_i0",
			"primitives": [
				{
					"attributes": {
						"POSITION": "accessor_position_Disco_4391aaaa-df73-4396-9e33-31e4e4930b27_0_i0",
						"NORMAL": "accessor_normal_Disco_4391aaaa-df73-4396-9e33-31e4e4930b27_0_i0",
						"COLOR": "accessor_color_Disco_4391aaaa-df73-4396-9e33-31e4e4930b27_0_i0",
						"TANGENT": "accessor_tangent_Disco_4391aaaa-df73-4396-9e33-31e4e4930b27_0_i0",
						"TEXCOORD_0": "accessor_uv0_Disco_4391aaaa-df73-4396-9e33-31e4e4930b27_0_i0"
					},
					"indices": "accessor_indices_0_Disco_4391aaaa-df73-4396-9e33-31e4e4930b27_0_i0",
					"material": "material_4391aaaa-df73-4396-9e33-31e4e4930b27",
					"mode": 4
				}
			]
		},
		"mesh_Comet_1caa6d7d-f015-3f54-3a4b-8b5354d39f81_0_i0": {
			"name": "mesh_Comet_1caa6d7d-f015-3f54-3a4b-8b5354d39f81_0_i0",
			"primitives": [
				{
					"attributes": {
						"POSITION": "accessor_position_Comet_1caa6d7d-f015-3f54-3a4b-8b5354d39f81_0_i0",
						"NORMAL": "accessor_normal_Comet_1caa6d7d-f015-3f54-3a4b-8b5354d39f81_0_i0",
						"COLOR": "accessor_color_Comet_1caa6d7d-f015-3f54-3a4b-8b5354d39f81_0_i0",
						"TANGENT": "accessor_tangent_Comet_1caa6d7d-f015-3f54-3a4b-8b5354d39f81_0_i0",
						"TEXCOORD_0": "accessor_uv0_Comet_1caa6d7d-f015-3f54-3a4b-8b5354d39f81_0_i0"
					},
					"indices": "accessor_indices_0_Comet_1caa6d7d-f015-3f54-3a4b-8b5354d39f81_0_i0",
					"material": "material_1caa6d7d-f015-3f54-3a4b-8b5354d39f81",
					"mode": 4
				}
			]
		}
	},
	"shaders": {
		"vertex_4391aaaa-df73-4396-9e33-31e4e4930b27": {
			"type": 35633,
			"uri": "https://www.tiltbrush.com/shaders/brushes/Disco-4391aaaa-df73-4396-9e33-31e4e4930b27/Disco-4391aaaa-df73-4396-9e33-31e4e4930b27-v10.0-vertex.glsl"
		},
		"fragment_4391aaaa-df73-4396-9e33-31e4e4930b27": {
			"type": 35632,
			"uri": "https://www.tiltbrush.com/shaders/brushes/Disco-4391aaaa-df73-4396-9e33-31e4e4930b27/Disco-4391aaaa-df73-4396-9e33-31e4e4930b27-v10.0-fragment.glsl"
		},
		"vertex_1caa6d7d-f015-3f54-3a4b-8b5354d39f81": {
			"type": 35633,
			"uri": "https://www.tiltbrush.com/shaders/brushes/Comet-1caa6d7d-f015-3f54-3a4b-8b5354d39f81/Comet-1caa6d7d-f015-3f54-3a4b-8b5354d39f81-v10.0-vertex.glsl"
		},
		"fragment_1caa6d7d-f015-3f54-3a4b-8b5354d39f81": {
			"type": 35632,
			"uri": "https://www.tiltbrush.com/shaders/brushes/Comet-1caa6d7d-f015-3f54-3a4b-8b5354d39f81/Comet-1caa6d7d-f015-3f54-3a4b-8b5354d39f81-v10.0-fragment.glsl"
		}
	},
	"programs": {
		"program_4391aaaa-df73-4396-9e33-31e4e4930b27": {
			"attributes": [
				"a_position",
				"a_normal",
				"a_color",
				"a_tangent",
				"a_texcoord0"
			],
			"vertexShader": "vertex_4391aaaa-df73-4396-9e33-31e4e4930b27",
			"fragmentShader": "fragment_4391aaaa-df73-4396-9e33-31e4e4930b27"
		},
		"program_1caa6d7d-f015-3f54-3a4b-8b5354d39f81": {
			"attributes": [
				"a_position",
				"a_normal",
				"a_color",
				"a_tangent",
				"a_texcoord0"
			],
			"vertexShader": "vertex_1caa6d7d-f015-3f54-3a4b-8b5354d39f81",
			"fragmentShader": "fragment_1caa6d7d-f015-3f54-3a4b-8b5354d39f81"
		}
	},
	"techniques": {
		"technique_4391aaaa-df73-4396-9e33-31e4e4930b27": {
			"program": "program_4391aaaa-df73-4396-9e33-31e4e4930b27",
			"parameters": {
				"position": {
					"type": 35665,
					"semantic": "POSITION"
				},
				"normal": {
					"type": 35665,
					"semantic": "NORMAL"
				},
				"color": {
					"type": 35666,
					"semantic": "COLOR"
				},
				"tangent": {
					"type": 35666,
					"semantic": "TANGENT"
				},
				"texcoord0": {
					"type": 35665,
					"semantic": "TEXCOORD_0"
				},
				"modelViewMatrix": {
					"type": 35676,
					"semantic": "MODELVIEW"
				},
				"projectionMatrix": {
					"type": 35676,
					"semantic": "PROJECTION"
				},
				"normalMatrix": {
					"type": 35675,
					"semantic": "MODELVIEWINVERSETRANSPOSE"
				},
				"SceneLight_0_matrix": {
					"type": 35676,
					"semantic": "MODELVIEW",
					"node": "node_SceneLight_0_i1"
				},
				"SceneLight_0_color": {
					"type": 35666,
					"node": "node_SceneLight_0_i1"
				},
				"SceneLight_1_matrix": {
					"type": 35676,
					"semantic": "MODELVIEW",
					"node": "node_SceneLight_1_i2"
				},
				"SceneLight_1_color": {
					"type": 35666,
					"node": "node_SceneLight_1_i2"
				},
				"ambient_light_color": {
					"type": 35666
				},
				"Shininess": {
					"type": 5126
				},
				"Color": {
					"type": 35666
				},
				"SpecColor": {
					"type": 35666
				}
			},
			"attributes": {
				"a_position": "position",
				"a_normal": "normal",
				"a_color": "color",
				"a_tangent": "tangent",
				"a_texcoord0": "texcoord0"
			},
			"uniforms": {
				"u_modelViewMatrix": "modelViewMatrix",
				"u_projectionMatrix": "projectionMatrix",
				"u_normalMatrix": "normalMatrix",
				"u_SceneLight_0_matrix": "SceneLight_0_matrix",
				"u_SceneLight_0_color": "SceneLight_0_color",
				"u_SceneLight_1_matrix": "SceneLight_1_matrix",
				"u_SceneLight_1_color": "SceneLight_1_color",
				"u_ambient_light_color": "ambient_light_color",
				"u_Shininess": "Shininess",
				"u_Color": "Color",
				"u_SpecColor": "SpecColor"
			},
			"states": {
				"enable": [
					2929,
					2884
				],
				"functions": {
					"depthMask": [true]
				}
			}
		},
		"technique_1caa6d7d-f015-3f54-3a4b-8b5354d39f81": {
			"program": "program_1caa6d7d-f015-3f54-3a4b-8b5354d39f81",
			"parameters": {
				"position": {
					"type": 35665,
					"semantic": "POSITION"
				},
				"normal": {
					"type": 35665,
					"semantic": "NORMAL"
				},
				"color": {
					"type": 35666,
					"semantic": "COLOR"
				},
				"tangent": {
					"type": 35666,
					"semantic": "TANGENT"
				},
				"texcoord0": {
					"type": 35665,
					"semantic": "TEXCOORD_0"
				},
				"modelViewMatrix": {
					"type": 35676,
					"semantic": "MODELVIEW"
				},
				"projectionMatrix": {
					"type": 35676,
					"semantic": "PROJECTION"
				},
				"normalMatrix": {
					"type": 35675,
					"semantic": "MODELVIEWINVERSETRANSPOSE"
				},
				"SceneLight_0_matrix": {
					"type": 35676,
					"semantic": "MODELVIEW",
					"node": "node_SceneLight_0_i1"
				},
				"SceneLight_0_color": {
					"type": 35666,
					"node": "node_SceneLight_0_i1"
				},
				"SceneLight_1_matrix": {
					"type": 35676,
					"semantic": "MODELVIEW",
					"node": "node_SceneLight_1_i2"
				},
				"SceneLight_1_color": {
					"type": 35666,
					"node": "node_SceneLight_1_i2"
				},
				"ambient_light_color": {
					"type": 35666
				},
				"Speed": {
					"type": 5126
				},
				"EmissionGain": {
					"type": 5126
				},
				"MainTex_TexelSize": {
					"type": 35666
				},
				"AlphaMask_TexelSize": {
					"type": 35666
				},
				"MainTex": {
					"type": 35678
				},
				"AlphaMask": {
					"type": 35678
				}
			},
			"attributes": {
				"a_position": "position",
				"a_normal": "normal",
				"a_color": "color",
				"a_tangent": "tangent",
				"a_texcoord0": "texcoord0"
			},
			"uniforms": {
				"u_modelViewMatrix": "modelViewMatrix",
				"u_projectionMatrix": "projectionMatrix",
				"u_normalMatrix": "normalMatrix",
				"u_SceneLight_0_matrix": "SceneLight_0_matrix",
				"u_SceneLight_0_color": "SceneLight_0_color",
				"u_SceneLight_1_matrix": "SceneLight_1_matrix",
				"u_SceneLight_1_color": "SceneLight_1_color",
				"u_ambient_light_color": "ambient_light_color",
				"u_Speed": "Speed",
				"u_EmissionGain": "EmissionGain",
				"u_MainTex_TexelSize": "MainTex_TexelSize",
				"u_AlphaMask_TexelSize": "AlphaMask_TexelSize",
				"u_MainTex": "MainTex",
				"u_AlphaMask": "AlphaMask"
			},
			"states": {
				"enable": [
					2929,
					3042
				],
				"functions": {
					"blendFuncSeparate": [1, 1, 1, 1],
					"depthMask": [false]
				}
			}
		}
	},
	"samplers": {
		"sampler_LINEAR_LINEAR_MIPMAP_LINEAR_REPEAT": {
			"magFilter": 9729,
			"minFilter": 9987,
			"wrapS": 10497,
			"wrapT": 10497
		}
	},
	"textures": {
		"texture_1caa6d7d-f015-3f54-3a4b-8b5354d39f81_MainTex": {
			"format": 6408,
			"internalFormat": 6408,
			"sampler": "sampler_LINEAR_LINEAR_MIPMAP_LINEAR_REPEAT",
			"source": "image_1caa6d7d-f015-3f54-3a4b-8b5354d39f81_MainTex",
			"target": 3553,
			"type": 5121
		},
		"texture_1caa6d7d-f015-3f54-3a4b-8b5354d39f81_AlphaMask": {
			"format": 6408,
			"internalFormat": 6408,
			"sampler": "sampler_LINEAR_LINEAR_MIPMAP_LINEAR_REPEAT",
			"source": "image_1caa6d7d-f015-3f54-3a4b-8b5354d39f81_AlphaMask",
			"target": 3553,
			"type": 5121
		}
	},
	"images": {
		"image_1caa6d7d-f015-3f54-3a4b-8b5354d39f81_MainTex": {
			"uri": "https://www.tiltbrush.com/shaders/brushes/Comet-1caa6d7d-f015-3f54-3a4b-8b5354d39f81/Comet-1caa6d7d-f015-3f54-3a4b-8b5354d39f81-v10.0-MainTex.png"
		},
		"image_1caa6d7d-f015-3f54-3a4b-8b5354d39f81_AlphaMask": {
			"uri": "https://www.tiltbrush.com/shaders/brushes/Comet-1caa6d7d-f015-3f54-3a4b-8b5354d39f81/Comet-1caa6d7d-f015-3f54-3a4b-8b5354d39f81-v10.0-AlphaMask.png"
		}
	},
	"materials": {
		"material_4391aaaa-df73-4396-9e33-31e4e4930b27": {
			"technique": "technique_4391aaaa-df73-4396-9e33-31e4e4930b27",
			"values": {
				"SceneLight_0_color": [1.023529, 0.7647059, 0.9294118, 1],
				"SceneLight_1_color": [0, 0, 0, 1],
				"ambient_light_color": [0.3019608, 0.3019608, 0.6039216, 1],
				"Shininess": 0.65,
				"Color": [0, 0, 0, 1],
				"SpecColor": [0.5147059, 0.5147059, 0.5147059, 0]
			},
			"name": "material_4391aaaa-df73-4396-9e33-31e4e4930b27"
		},
		"material_1caa6d7d-f015-3f54-3a4b-8b5354d39f81": {
			"technique": "technique_1caa6d7d-f015-3f54-3a4b-8b5354d39f81",
			"values": {
				"SceneLight_0_color": [1.023529, 0.7647059, 0.9294118, 1],
				"SceneLight_1_color": [0, 0, 0, 1],
				"ambient_light_color": [0.3019608, 0.3019608, 0.6039216, 1],
				"Speed": 1,
				"EmissionGain": 0.5,
				"MainTex_TexelSize": [0.00390625, 0.00390625, 256, 256],
				"AlphaMask_TexelSize": [0.015625, 1, 64, 1],
				"MainTex": "texture_1caa6d7d-f015-3f54-3a4b-8b5354d39f81_MainTex",
				"AlphaMask": "texture_1caa6d7d-f015-3f54-3a4b-8b5354d39f81_AlphaMask"
			},
			"name": "material_1caa6d7d-f015-3f54-3a4b-8b5354d39f81"
		}
	},
	"nodes": {
		"node_Disco_4391aaaa-df73-4396-9e33-31e4e4930b27_0_i0": {
			"name": "node_Disco_4391aaaa-df73-4396-9e33-31e4e4930b27_0_i0",
			"meshes": [
				"mesh_Disco_4391aaaa-df73-4396-9e33-31e4e4930b27_0_i0"
			],
			"matrix": [1, 0, 0, 0, 0, 1, 0, 0, 0, 0, 1, 0, 0, 0, 0, 1]
		},
		"node_SceneLight_0_i1": {
			"name": "node_SceneLight_0_i1",
			"light": "SceneLight_0",
			"matrix": [0.8987941, 0.1852636, -0.3972992, 0, -0.4383711, 0.3798467, -0.8145841, 0, 1.490116E-08, 0.9063078, 0.4226182, 0, -0.3144744, 1.263602, -0.08310907, 1]
		},
		"node_SceneLight_1_i2": {
			"name": "node_SceneLight_1_i2",
			"light": "SceneLight_1",
			"matrix": [1, 0, 0, 0, 0, 1, 0, 0, 0, 0, 1, 0, -0.3144744, 1.245503, -0.1857537, 1]
		},
		"node_Comet_1caa6d7d-f015-3f54-3a4b-8b5354d39f81_0_i0": {
			"name": "node_Comet_1caa6d7d-f015-3f54-3a4b-8b5354d39f81_0_i0",
			"meshes": [
				"mesh_Comet_1caa6d7d-f015-3f54-3a4b-8b5354d39f81_0_i0"
			],
			"matrix": [1, 0, 0, 0, 0, 1, 0, 0, 0, 0, 1, 0, 0, 0, 0, 1]
		}
	},
	"scene": "defaultScene",
	"scenes": {
		"defaultScene": {
			"nodes": [
				"node_Disco_4391aaaa-df73-4396-9e33-31e4e4930b27_0_i0",
				"node_SceneLight_0_i1",
				"node_SceneLight_1_i2",
				"node_Comet_1caa6d7d-f015-3f54-3a4b-8b5354d39f81_0_i0"
			],
			"extras": {
				"TB_EnvironmentGuid": "c504347a-c96d-4505-853b-87b484acff9a",
				"TB_Environment": "Night Sky",
				"TB_UseGradient": "false",
				"TB_SkyColorA": "0.08235294, 0.04705882, 0.1843137",
				"TB_SkyColorB": "0, 0, 0",
				"TB_SkyGradientDirection": "0, 1, 0",
				"TB_FogColor": "0.01960784, 0.01176471, 0.04313726",
				"TB_FogDensity": "0.006",
				"TB_SkyColorHorizon": "0.08235294, 0.04705882, 0.1843137",
				"TB_SkyColorZenith": "0, 0, 0"
			}
		}
	}
}