{
	"asset": {
		"generator": "Tilt Brush 23.2.28f36f08b",
		"version": "1.1",
		"copyright": "Unknown."
	},
	"buffers": {
		"buffer_sketch": {
			"byteLength": 653088,
			"type": "arraybuffer",
			"uri": "sketch.bin"
		}
	},
	"accessors": {
		"accessor_position_Highlighter_cf019139-d41c-4eb0-a1d0-5cf54b0a42f3_0_i0": {
			"bufferView": "vec3BufferView",
			"byteOffset": 0,
			"byteStride": 12,
			"componentType": 5126,
			"count": 444,
			"max": [ 0.176825523, 0.776345193, -0.539589167 ],
			"min": [ -0.176825523, 0.550536215, -0.712600172 ],
			"type": "VEC3"
		},
		"accessor_normal_Highlighter_cf019139-d41c-4eb0-a1d0-5cf54b0a42f3_0_i0": {
			"bufferView": "vec3BufferView",
			"byteOffset": 5328,
			"byteStride": 12,
			"componentType": 5126,
			"count": 444,
			"type": "VEC3"
		},
		"accessor_color_Highlighter_cf019139-d41c-4eb0-a1d0-5cf54b0a42f3_0_i0": {
			"bufferView": "vec4BufferView",
			"byteOffset": 0,
			"byteStride": 16,
			"componentType": 5126,
			"count": 444,
			"type": "VEC4"
		},
		"accessor_tangent_Highlighter_cf019139-d41c-4eb0-a1d0-5cf54b0a42f3_0_i0": {
			"bufferView": "vec4BufferView",
			"byteOffset": 7104,
			"byteStride": 16,
			"componentType": 5126,
			"count": 444,
			"type": "VEC4"
		},
		"accessor_uv0_Highlighter_cf019139-d41c-4eb0-a1d0-5cf54b0a42f3_0_i0": {
			"bufferView": "vec2BufferView",
			"byteOffset": 0,
			"byteStride": 8,
			"componentType": 5126,
			"count": 444,
			"type": "VEC2"
		},
		"accessor_indices_0_Highlighter_cf019139-d41c-4eb0-a1d0-5cf54b0a42f3_0_i0": {
			"bufferView": "ushortBufferView",
			"byteOffset": 0,
			"byteStride": 0,
			"componentType": 5123,
			"count": 1308,
			"max": [ 443 ],
			"min": [ 0 ],
			"type": "SCALAR"
		},
		"accessor_position_DiamondHull_c8313697-2563-47fc-832e-290f4c04b901_0_i0": {
			"bufferView": "vec3BufferView",
			"byteOffset": 10656,
			"byteStride": 12,
			"componentType": 5126,
			"count": 10764,
			"max": [ 0.179609641, 0.788146079, -0.529162288 ],
			"min": [ -0.179609627, 0.540841579, -0.731654882 ],
			"type": "VEC3"
		},
		"accessor_normal_DiamondHull_c8313697-2563-47fc-832e-290f4c04b901_0_i0": {
			"bufferView": "vec3BufferView",
			"byteOffset": 139824,
			"byteStride": 12,
			"componentType": 5126,
			"count": 10764,
			"type": "VEC3"
		},
		"accessor_color_DiamondHull_c8313697-2563-47fc-832e-290f4c04b901_0_i0": {
			"bufferView": "vec4BufferView",
			"byteOffset": 14208,
			"byteStride": 16,
			"componentType": 5126,
			"count": 10764,
			"type": "VEC4"
		},
		"accessor_uv0_DiamondHull_c8313697-2563-47fc-832e-290f4c04b901_0_i0": {
			"bufferView": "vec3BufferView",
			"byteOffset": 268992,
			"byteStride": 12,
			"componentType": 5126,
			"count": 10764,
			"type": "VEC3"
		},
		"accessor_indices_0_DiamondHull_c8313697-2563-47fc-832e-290f4c04b901_0_i0": {
			"bufferView": "ushortBufferView",
			"byteOffset": 2616,
			"byteStride": 0,
			"componentType": 5123,
			"count": 10764,
			"max": [ 10763 ],
			"min": [ 0 ],
			"type": "SCALAR"
		},
		"accessor_position_Embers_02ffb866-7fb2-4d15-b761-1012cefb1360_0_i0": {
			"bufferView": "vec3BufferView",
			"byteOffset": 398160,
			"byteStride": 12,
			"componentType": 5126,
			"count": 544,
			"max": [ 0.170656741, 0.797552764, -0.525910139 ],
			"min": [ -0.171166152, 0.643748522, -0.936697483 ],
			"type": "VEC3"
		},
		"accessor_normal_Embers_02ffb866-7fb2-4d15-b761-1012cefb1360_0_i0": {
			"bufferView": "vec3BufferView",
			"byteOffset": 404688,
			"byteStride": 12,
			"componentType": 5126,
			"count": 544,
			"type": "VEC3"
		},
		"accessor_color_Embers_02ffb866-7fb2-4d15-b761-1012cefb1360_0_i0": {
			"bufferView": "vec4BufferView",
			"byteOffset": 186432,
			"byteStride": 16,
			"componentType": 5126,
			"count": 544,
			"type": "VEC4"
		},
		"accessor_uv0_Embers_02ffb866-7fb2-4d15-b761-1012cefb1360_0_i0": {
			"bufferView": "vec4BufferView",
			"byteOffset": 195136,
			"byteStride": 16,
			"componentType": 5126,
			"count": 544,
			"type": "VEC4"
		},
		"accessor_uv1_Embers_02ffb866-7fb2-4d15-b761-1012cefb1360_0_i0": {
			"bufferView": "vec4BufferView",
			"byteOffset": 203840,
			"byteStride": 16,
			"componentType": 5126,
			"count": 544,
			"type": "VEC4"
		},
		"accessor_indices_0_Embers_02ffb866-7fb2-4d15-b761-1012cefb1360_0_i0": {
			"bufferView": "ushortBufferView",
			"byteOffset": 24144,
			"byteStride": 0,
			"componentType": 5123,
			"count": 816,
			"max": [ 543 ],
			"min": [ 0 ],
			"type": "SCALAR"
		}
	},
	"bufferViews": {
		"ushortBufferView": {
			"buffer": "buffer_sketch",
			"byteLength": 25776,
			"byteOffset": 0,
			"target": 34963
		},
		"vec2BufferView": {
			"buffer": "buffer_sketch",
			"byteLength": 3552,
			"byteOffset": 25776,
			"target": 34962
		},
		"vec3BufferView": {
			"buffer": "buffer_sketch",
			"byteLength": 411216,
			"byteOffset": 29328,
			"target": 34962
		},
		"vec4BufferView": {
			"buffer": "buffer_sketch",
			"byteLength": 212544,
			"byteOffset": 440544,
			"target": 34962
		}
	},
	"meshes": {
		"mesh_Highlighter_cf019139-d41c-4eb0-a1d0-5cf54b0a42f3_0_i0": {
			"name": "mesh_Highlighter_cf019139-d41c-4eb0-a1d0-5cf54b0a42f3_0_i0",
			"primitives": [
				{
					"attributes": {
						"POSITION": "accessor_position_Highlighter_cf019139-d41c-4eb0-a1d0-5cf54b0a42f3_0_i0",
						"NORMAL": "accessor_normal_Highlighter_cf019139-d41c-4eb0-a1d0-5cf54b0a42f3_0_i0",
						"COLOR": "accessor_color_Highlighter_cf019139-d41c-4eb0-a1d0-5cf54b0a42f3_0_i0",
						"TANGENT": "accessor_tangent_Highlighter_cf019139-d41c-4eb0-a1d0-5cf54b0a42f3_0_i0",
						"TEXCOORD_0": "accessor_uv0_Highlighter_cf019139-d41c-4eb0-a1d0-5cf54b0a42f3_0_i0"
					},
					"indices": "accessor_indices_0_Highlighter_cf019139-d41c-4eb0-a1d0-5cf54b0a42f3_0_i0",
					"material": "material_cf019139-d41c-4eb0-a1d0-5cf54b0a42f3",
					"mode": 4
				}
			]
		},
		"mesh_DiamondHull_c8313697-2563-47fc-832e-290f4c04b901_0_i0": {
			"name": "mesh_DiamondHull_c8313697-2563-47fc-832e-290f4c04b901_0_i0",
			"primitives": [
				{
					"attributes": {
						"POSITION": "accessor_position_DiamondHull_c8313697-2563-47fc-832e-290f4c04b901_0_i0",
						"NORMAL": "accessor_normal_DiamondHull_c8313697-2563-47fc-832e-290f4c04b901_0_i0",
						"COLOR": "accessor_color_DiamondHull_c8313697-2563-47fc-832e-290f4c04b901_0_i0",
						"TEXCOORD_0": "accessor_uv0_DiamondHull_c8313697-2563-47fc-832e-290f4c04b901_0_i0"
					},
					"indices": "accessor_indices_0_DiamondHull_c8313697-2563-47fc-832e-290f4c04b901_0_i0",
					"material": "material_c8313697-2563-47fc-832e-290f4c04b901",
					"mode": 4
				}
			]
		},
		"mesh_Embers_02ffb866-7fb2-4d15-b761-1012cefb1360_0_i0": {
			"name": "mesh_Embers_02ffb866-7fb2-4d15-b761-1012cefb1360_0_i0",
			"primitives": [
				{
					"attributes": {
						"POSITION": "accessor_position_Embers_02ffb866-7fb2-4d15-b761-1012cefb1360_0_i0",
						"NORMAL": "accessor_normal_Embers_02ffb866-7fb2-4d15-b761-1012cefb1360_0_i0",
						"COLOR": "accessor_color_Embers_02ffb866-7fb2-4d15-b761-1012cefb1360_0_i0",
						"TEXCOORD_0": "accessor_uv0_Embers_02ffb866-7fb2-4d15-b761-1012cefb1360_0_i0",
						"TEXCOORD_1": "accessor_uv1_Embers_02ffb866-7fb2-4d15-b761-1012cefb1360_0_i0"
					},
					"indices": "accessor_indices_0_Embers_02ffb866-7fb2-4d15-b761-1012cefb1360_0_i0",
					"material": "material_02ffb866-7fb2-4d15-b761-1012cefb1360",
					"mode": 4
				}
			]
		}
	},
	"shaders": {
		"vertex_cf019139-d41c-4eb0-a1d0-5cf54b0a42f3": {
			"type": 35633,
			"uri": "https://www.tiltbrush.com/shaders/brushes/Highlighter-cf019139-d41c-4eb0-a1d0-5cf54b0a42f3/Highlighter-cf019139-d41c-4eb0-a1d0-5cf54b0a42f3-v10.0-vertex.glsl"
		},
		"fragment_cf019139-d41c-4eb0-a1d0-5cf54b0a42f3": {
			"type": 35632,
			"uri": "https://www.tiltbrush.com/shaders/brushes/Highlighter-cf019139-d41c-4eb0-a1d0-5cf54b0a42f3/Highlighter-cf019139-d41c-4eb0-a1d0-5cf54b0a42f3-v10.0-fragment.glsl"
		},
		"vertex_c8313697-2563-47fc-832e-290f4c04b901": {
			"type": 35633,
			"uri": "https://www.tiltbrush.com/shaders/brushes/DiamondHull-c8313697-2563-47fc-832e-290f4c04b901/DiamondHull-c8313697-2563-47fc-832e-290f4c04b901-v10.0-vertex.glsl"
		},
		"fragment_c8313697-2563-47fc-832e-290f4c04b901": {
			"type": 35632,
			"uri": "https://www.tiltbrush.com/shaders/brushes/DiamondHull-c8313697-2563-47fc-832e-290f4c04b901/DiamondHull-c8313697-2563-47fc-832e-290f4c04b901-v10.0-fragment.glsl"
		},
		"vertex_02ffb866-7fb2-4d15-b761-1012cefb1360": {
			"type": 35633,
			"uri": "https://www.tiltbrush.com/shaders/brushes/Embers-02ffb866-7fb2-4d15-b761-1012cefb1360/Embers-02ffb866-7fb2-4d15-b761-1012cefb1360-v10.0-vertex.glsl"
		},
		"fragment_02ffb866-7fb2-4d15-b761-1012cefb1360": {
			"type": 35632,
			"uri": "https://www.tiltbrush.com/shaders/brushes/Embers-02ffb866-7fb2-4d15-b761-1012cefb1360/Embers-02ffb866-7fb2-4d15-b761-1012cefb1360-v10.0-fragment.glsl"
		}
	},
	"programs": {
		"program_cf019139-d41c-4eb0-a1d0-5cf54b0a42f3": {
			"attributes": [
				"a_position",
				"a_normal",
				"a_color",
				"a_tangent",
				"a_texcoord0"
			],
			"vertexShader": "vertex_cf019139-d41c-4eb0-a1d0-5cf54b0a42f3",
			"fragmentShader": "fragment_cf019139-d41c-4eb0-a1d0-5cf54b0a42f3"
		},
		"program_c8313697-2563-47fc-832e-290f4c04b901": {
			"attributes": [
				"a_position",
				"a_normal",
				"a_color",
				"a_texcoord0"
			],
			"vertexShader": "vertex_c8313697-2563-47fc-832e-290f4c04b901",
			"fragmentShader": "fragment_c8313697-2563-47fc-832e-290f4c04b901"
		},
		"program_02ffb866-7fb2-4d15-b761-1012cefb1360": {
			"attributes": [
				"a_position",
				"a_normal",
				"a_color",
				"a_vertexId",
				"a_texcoord0",
				"a_texcoord1"
			],
			"vertexShader": "vertex_02ffb866-7fb2-4d15-b761-1012cefb1360",
			"fragmentShader": "fragment_02ffb866-7fb2-4d15-b761-1012cefb1360"
		}
	},
	"techniques": {
		"technique_cf019139-d41c-4eb0-a1d0-5cf54b0a42f3": {
			"program": "program_cf019139-d41c-4eb0-a1d0-5cf54b0a42f3",
			"parameters": {
				"position": {
					"type": 35665,
					"semantic": "POSITION"
				},
				"normal": {
					"type": 35665,
					"semantic": "NORMAL"
				},
				"color": {
					"type": 35666,
					"semantic": "COLOR"
				},
				"tangent": {
					"type": 35666,
					"semantic": "TANGENT"
				},
				"texcoord0": {
					"type": 35664,
					"semantic": "TEXCOORD_0"
				},
				"modelViewMatrix": {
					"type": 35676,
					"semantic": "MODELVIEW"
				},
				"projectionMatrix": {
					"type": 35676,
					"semantic": "PROJECTION"
				},
				"normalMatrix": {
					"type": 35675,
					"semantic": "MODELVIEWINVERSETRANSPOSE"
				},
				"SceneLight_0_matrix": {
					"type": 35676,
					"semantic": "MODELVIEW",
					"node": "node_SceneLight_0_i1"
				},
				"SceneLight_0_color": {
					"type": 35666,
					"node": "node_SceneLight_0_i1"
				},
				"SceneLight_1_matrix": {
					"type": 35676,
					"semantic": "MODELVIEW",
					"node": "node_SceneLight_1_i2"
				},
				"SceneLight_1_color": {
					"type": 35666,
					"node": "node_SceneLight_1_i2"
				},
				"ambient_light_color": {
					"type": 35666
				},
				"Cutoff": {
					"type": 5126
				},
				"MainTex_TexelSize": {
					"type": 35666
				},
				"MainTex": {
					"type": 35678
				}
			},
			"attributes": {
				"a_position": "position",
				"a_normal": "normal",
				"a_color": "color",
				"a_tangent": "tangent",
				"a_texcoord0": "texcoord0"
			},
			"uniforms": {
				"u_modelViewMatrix": "modelViewMatrix",
				"u_projectionMatrix": "projectionMatrix",
				"u_normalMatrix": "normalMatrix",
				"u_SceneLight_0_matrix": "SceneLight_0_matrix",
				"u_SceneLight_0_color": "SceneLight_0_color",
				"u_SceneLight_1_matrix": "SceneLight_1_matrix",
				"u_SceneLight_1_color": "SceneLight_1_color",
				"u_ambient_light_color": "ambient_light_color",
				"u_Cutoff": "Cutoff",
				"u_MainTex_TexelSize": "MainTex_TexelSize",
				"u_MainTex": "MainTex"
			},
			"states": {
				"enable": [
					2929,
					3042
				],
				"functions": {
					"blendFuncSeparate": [1, 1, 1, 1],
					"depthMask": [false]
				}
			}
		},
		"technique_c8313697-2563-47fc-832e-290f4c04b901": {
			"program": "program_c8313697-2563-47fc-832e-290f4c04b901",
			"parameters": {
				"position": {
					"type": 35665,
					"semantic": "POSITION"
				},
				"normal": {
					"type": 35665,
					"semantic": "NORMAL"
				},
				"color": {
					"type": 35666,
					"semantic": "COLOR"
				},
				"texcoord0": {
					"type": 35665,
					"semantic": "TEXCOORD_0"
				},
				"modelViewMatrix": {
					"type": 35676,
					"semantic": "MODELVIEW"
				},
				"projectionMatrix": {
					"type": 35676,
					"semantic": "PROJECTION"
				},
				"normalMatrix": {
					"type": 35675,
					"semantic": "MODELVIEWINVERSETRANSPOSE"
				},
				"SceneLight_0_matrix": {
					"type": 35676,
					"semantic": "MODELVIEW",
					"node": "node_SceneLight_0_i1"
				},
				"SceneLight_0_color": {
					"type": 35666,
					"node": "node_SceneLight_0_i1"
				},
				"SceneLight_1_matrix": {
					"type": 35676,
					"semantic": "MODELVIEW",
					"node": "node_SceneLight_1_i2"
				},
				"SceneLight_1_color": {
					"type": 35666,
					"node": "node_SceneLight_1_i2"
				},
				"ambient_light_color": {
					"type": 35666
				},
				"MainTex_TexelSize": {
					"type": 35666
				},
				"MainTex": {
					"type": 35678
				}
			},
			"attributes": {
				"a_position": "position",
				"a_normal": "normal",
				"a_color": "color",
				"a_texcoord0": "texcoord0"
			},
			"uniforms": {
				"u_modelViewMatrix": "modelViewMatrix",
				"u_projectionMatrix": "projectionMatrix",
				"u_normalMatrix": "normalMatrix",
				"u_SceneLight_0_matrix": "SceneLight_0_matrix",
				"u_SceneLight_0_color": "SceneLight_0_color",
				"u_SceneLight_1_matrix": "SceneLight_1_matrix",
				"u_SceneLight_1_color": "SceneLight_1_color",
				"u_ambient_light_color": "ambient_light_color",
				"u_MainTex_TexelSize": "MainTex_TexelSize",
				"u_MainTex": "MainTex"
			},
			"states": {
				"enable": [
					2929,
					3042
				],
				"functions": {
					"blendFuncSeparate": [1, 1, 1, 1],
					"depthMask": [false]
				}
			}
		},
		"technique_02ffb866-7fb2-4d15-b761-1012cefb1360": {
			"program": "program_02ffb866-7fb2-4d15-b761-1012cefb1360",
			"parameters": {
				"position": {
					"type": 35665,
					"semantic": "POSITION"
				},
				"normal": {
					"type": 35665,
					"semantic": "NORMAL"
				},
				"color": {
					"type": 35666,
					"semantic": "COLOR"
				},
				"vertexId": {
					"type": 5126
				},
				"texcoord0": {
					"type": 35666,
					"semantic": "TEXCOORD_0"
				},
				"texcoord1": {
					"type": 35666,
					"semantic": "TEXCOORD_1"
				},
				"modelViewMatrix": {
					"type": 35676,
					"semantic": "MODELVIEW"
				},
				"projectionMatrix": {
					"type": 35676,
					"semantic": "PROJECTION"
				},
				"normalMatrix": {
					"type": 35675,
					"semantic": "MODELVIEWINVERSETRANSPOSE"
				},
				"SceneLight_0_matrix": {
					"type": 35676,
					"semantic": "MODELVIEW",
					"node": "node_SceneLight_0_i1"
				},
				"SceneLight_0_color": {
					"type": 35666,
					"node": "node_SceneLight_0_i1"
				},
				"SceneLight_1_matrix": {
					"type": 35676,
					"semantic": "MODELVIEW",
					"node": "node_SceneLight_1_i2"
				},
				"SceneLight_1_color": {
					"type": 35666,
					"node": "node_SceneLight_1_i2"
				},
				"ambient_light_color": {
					"type": 35666
				},
				"ScrollRate": {
					"type": 5126
				},
				"ScrollJitterIntensity": {
					"type": 5126
				},
				"ScrollJitterFrequency": {
					"type": 5126
				},
				"SpreadRate": {
					"type": 5126
				},
				"TintColor": {
					"type": 35666
				},
				"ScrollDistance": {
					"type": 35666
				},
				"MainTex_TexelSize": {
					"type": 35666
				},
				"MainTex": {
					"type": 35678
				}
			},
			"attributes": {
				"a_position": "position",
				"a_normal": "normal",
				"a_color": "color",
				"a_vertexId": "vertexId",
				"a_texcoord0": "texcoord0",
				"a_texcoord1": "texcoord1"
			},
			"uniforms": {
				"u_modelViewMatrix": "modelViewMatrix",
				"u_projectionMatrix": "projectionMatrix",
				"u_normalMatrix": "normalMatrix",
				"u_SceneLight_0_matrix": "SceneLight_0_matrix",
				"u_SceneLight_0_color": "SceneLight_0_color",
				"u_SceneLight_1_matrix": "SceneLight_1_matrix",
				"u_SceneLight_1_color": "SceneLight_1_color",
				"u_ambient_light_color": "ambient_light_color",
				"u_ScrollRate": "ScrollRate",
				"u_ScrollJitterIntensity": "ScrollJitterIntensity",
				"u_ScrollJitterFrequency": "ScrollJitterFrequency",
				"u_SpreadRate": "SpreadRate",
				"u_TintColor": "TintColor",
				"u_ScrollDistance": "ScrollDistance",
				"u_MainTex_TexelSize": "MainTex_TexelSize",
				"u_MainTex": "MainTex"
			},
			"states": {
				"enable": [
					2929,
					3042
				],
				"functions": {
					"blendFuncSeparate": [1, 1, 1, 1],
					"depthMask": [false]
				}
			}
		}
	},
	"samplers": {
		"sampler_LINEAR_LINEAR_MIPMAP_LINEAR_REPEAT": {
			"magFilter": 9729,
			"minFilter": 9987,
			"wrapS": 10497,
			"wrapT": 10497
		}
	},
	"textures": {
		"texture_cf019139-d41c-4eb0-a1d0-5cf54b0a42f3_MainTex": {
			"format": 6408,
			"internalFormat": 6408,
			"sampler": "sampler_LINEAR_LINEAR_MIPMAP_LINEAR_REPEAT",
			"source": "image_cf019139-d41c-4eb0-a1d0-5cf54b0a42f3_MainTex",
			"target": 3553,
			"type": 5121
		},
		"texture_c8313697-2563-47fc-832e-290f4c04b901_MainTex": {
			"format": 6408,
			"internalFormat": 6408,
			"sampler": "sampler_LINEAR_LINEAR_MIPMAP_LINEAR_REPEAT",
			"source": "image_c8313697-2563-47fc-832e-290f4c04b901_MainTex",
			"target": 3553,
			"type": 5121
		},
		"texture_02ffb866-7fb2-4d15-b761-1012cefb1360_MainTex": {
			"format": 6408,
			"internalFormat": 6408,
			"sampler": "sampler_LINEAR_LINEAR_MIPMAP_LINEAR_REPEAT",
			"source": "image_02ffb866-7fb2-4d15-b761-1012cefb1360_MainTex",
			"target": 3553,
			"type": 5121
		}
	},
	"images": {
		"image_cf019139-d41c-4eb0-a1d0-5cf54b0a42f3_MainTex": {
			"uri": "https://www.tiltbrush.com/shaders/brushes/Highlighter-cf019139-d41c-4eb0-a1d0-5cf54b0a42f3/Highlighter-cf019139-d41c-4eb0-a1d0-5cf54b0a42f3-v10.0-MainTex.png"
		},
		"image_c8313697-2563-47fc-832e-290f4c04b901_MainTex": {
			"uri": "https://www.tiltbrush.com/shaders/brushes/DiamondHull-c8313697-2563-47fc-832e-290f4c04b901/DiamondHull-c8313697-2563-47fc-832e-290f4c04b901-v10.0-MainTex.png"
		},
		"image_02ffb866-7fb2-4d15-b761-1012cefb1360_MainTex": {
			"uri": "https://www.tiltbrush.com/shaders/brushes/Embers-02ffb866-7fb2-4d15-b761-1012cefb1360/Embers-02ffb866-7fb2-4d15-b761-1012cefb1360-v10.0-MainTex.png"
		}
	},
	"materials": {
		"material_cf019139-d41c-4eb0-a1d0-5cf54b0a42f3": {
			"technique": "technique_cf019139-d41c-4eb0-a1d0-5cf54b0a42f3",
			"values": {
				"SceneLight_0_color": [1.023529, 0.7647059, 0.9294118, 1],
				"SceneLight_1_color": [0, 0, 0, 1],
				"ambient_light_color": [0.3019608, 0.3019608, 0.6039216, 1],
				"Cutoff": 0.12,
				"MainTex_TexelSize": [0.015625, 0.015625, 64, 64],
				"MainTex": "texture_cf019139-d41c-4eb0-a1d0-5cf54b0a42f3_MainTex"
			},
			"name": "material_cf019139-d41c-4eb0-a1d0-5cf54b0a42f3"
		},
		"material_c8313697-2563-47fc-832e-290f4c04b901": {
			"technique": "technique_c8313697-2563-47fc-832e-290f4c04b901",
			"values": {
				"SceneLight_0_color": [1.023529, 0.7647059, 0.9294118, 1],
				"SceneLight_1_color": [0, 0, 0, 1],
				"ambient_light_color": [0.3019608, 0.3019608, 0.6039216, 1],
				"MainTex_TexelSize": [0.0078125, 0.0078125, 128, 128],
				"MainTex": "texture_c8313697-2563-47fc-832e-290f4c04b901_MainTex"
			},
			"name": "material_c8313697-2563-47fc-832e-290f4c04b901"
		},
		"material_02ffb866-7fb2-4d15-b761-1012cefb1360": {
			"technique": "technique_02ffb866-7fb2-4d15-b761-1012cefb1360",
			"values": {
				"SceneLight_0_color": [1.023529, 0.7647059, 0.9294118, 1],
				"SceneLight_1_color": [0, 0, 0, 1],
				"ambient_light_color": [0.3019608, 0.3019608, 0.6039216, 1],
				"ScrollRate": 0.6,
				"ScrollJitterIntensity": 0.03,
				"ScrollJitterFrequency": 5,
				"SpreadRate": 1.539,
				"TintColor": [1, 1, 1, 1],
				"ScrollDistance": [0.2, 0.6, 0, 0],
				"MainTex_TexelSize": [0.0078125, 0.0078125, 128, 128],
				"MainTex": "texture_02ffb866-7fb2-4d15-b761-1012cefb1360_MainTex"
			},
			"name": "material_02ffb866-7fb2-4d15-b761-1012cefb1360"
		}
	},
	"nodes": {
		"node_Highlighter_cf019139-d41c-4eb0-a1d0-5cf54b0a42f3_0_i0": {
			"name": "node_Highlighter_cf019139-d41c-4eb0-a1d0-5cf54b0a42f3_0_i0",
			"meshes": [
				"mesh_Highlighter_cf019139-d41c-4eb0-a1d0-5cf54b0a42f3_0_i0"
			],
			"matrix": [1, 0, 0, 0, 0, 1, 0, 0, 0, 0, 1, 0, 0, 0, 0, 1]
		},
		"node_SceneLight_0_i1": {
			"name": "node_SceneLight_0_i1",
			"light": "SceneLight_0",
			"matrix": [0.8987941, 0.1852636, -0.3972992, 0, -0.4383711, 0.3798467, -0.8145841, 0, 1.490116E-08, 0.9063078, 0.4226182, 0, 0.02738, 0.4189846, -1.285466, 1]
		},
		"node_SceneLight_1_i2": {
			"name": "node_SceneLight_1_i2",
			"light": "SceneLight_1",
			"matrix": [1, 0, 0, 0, 0, 1, 0, 0, 0, 0, 1, 0, 0.02738, 0.408457, -1.345171, 1]
		},
		"node_DiamondHull_c8313697-2563-47fc-832e-290f4c04b901_0_i0": {
			"name": "node_DiamondHull_c8313697-2563-47fc-832e-290f4c04b901_0_i0",
			"meshes": [
				"mesh_DiamondHull_c8313697-2563-47fc-832e-290f4c04b901_0_i0"
			],
			"matrix": [1, 0, 0, 0, 0, 1, 0, 0, 0, 0, 1, 0, 0, 0, 0, 1]
		},
		"node_Embers_02ffb866-7fb2-4d15-b761-1012cefb1360_0_i0": {
			"name": "node_Embers_02ffb866-7fb2-4d15-b761-1012cefb1360_0_i0",
			"meshes": [
				"mesh_Embers_02ffb866-7fb2-4d15-b761-1012cefb1360_0_i0"
			],
			"matrix": [1, 0, 0, 0, 0, 1, 0, 0, 0, 0, 1, 0, 0, 0, 0, 1]
		}
	},
	"scene": "defaultScene",
	"scenes": {
		"defaultScene": {
			"nodes": [
				"node_Highlighter_cf019139-d41c-4eb0-a1d0-5cf54b0a42f3_0_i0",
				"node_SceneLight_0_i1",
				"node_SceneLight_1_i2",
				"node_DiamondHull_c8313697-2563-47fc-832e-290f4c04b901_0_i0",
				"node_Embers_02ffb866-7fb2-4d15-b761-1012cefb1360_0_i0"
			],
			"extras": {
				"TB_EnvironmentGuid": "c504347a-c96d-4505-853b-87b484acff9a",
				"TB_Environment": "Night Sky",
				"TB_UseGradient": "false",
				"TB_SkyColorA": "0.08235294, 0.04705882, 0.1843137",
				"TB_SkyColorB": "0, 0, 0",
				"TB_SkyGradientDirection": "0, 1, 0",
				"TB_FogColor": "0.01960784, 0.01176471, 0.04313726",
				"TB_FogDensity": "0.006",
				"TB_SkyColorHorizon": "0.08235294, 0.04705882, 0.1843137",
				"TB_SkyColorZenith": "0, 0, 0"
			}
		}
	}
}