{
	"asset": {
		"generator": "Tilt Brush 23.2.28f36f08b",
		"version": "1.1",
		"copyright": "Unknown."
	},
	"buffers": {
		"buffer_sketch": {
			"byteLength": 1355704,
			"type": "arraybuffer",
			"uri": "sketch.bin"
		}
	},
	"accessors": {
		"accessor_position_ShinyHull_faaa4d44-fcfb-4177-96be-753ac0421ba3_0_i0": {
			"bufferView": "vec3BufferView",
			"byteOffset": 0,
			"byteStride": 12,
			"componentType": 5126,
			"count": 24144,
			"max": [ 0.159672886, 0.584531128, 0.15003337 ],
			"min": [ -0.159672886, -0.00692809373, -0.128023893 ],
			"type": "VEC3"
		},
		"accessor_normal_ShinyHull_faaa4d44-fcfb-4177-96be-753ac0421ba3_0_i0": {
			"bufferView": "vec3BufferView",
			"byteOffset": 289728,
			"byteStride": 12,
			"componentType": 5126,
			"count": 24144,
			"type": "VEC3"
		},
		"accessor_color_ShinyHull_faaa4d44-fcfb-4177-96be-753ac0421ba3_0_i0": {
			"bufferView": "vec4BufferView",
			"byteOffset": 0,
			"byteStride": 16,
			"componentType": 5126,
			"count": 24144,
			"type": "VEC4"
		},
		"accessor_uv0_ShinyHull_faaa4d44-fcfb-4177-96be-753ac0421ba3_0_i0": {
			"bufferView": "vec3BufferView",
			"byteOffset": 579456,
			"byteStride": 12,
			"componentType": 5126,
			"count": 24144,
			"type": "VEC3"
		},
		"accessor_indices_0_ShinyHull_faaa4d44-fcfb-4177-96be-753ac0421ba3_0_i0": {
			"bufferView": "ushortBufferView",
			"byteOffset": 0,
			"byteStride": 0,
			"componentType": 5123,
			"count": 24144,
			"max": [ 24143 ],
			"min": [ 0 ],
			"type": "SCALAR"
		},
		"accessor_position_Disco_4391aaaa-df73-4396-9e33-31e4e4930b27_0_i0": {
			"bufferView": "vec3BufferView",
			"byteOffset": 869184,
			"byteStride": 12,
			"componentType": 5126,
			"count": 502,
			"max": [ 0.00776183, 0.713180542, 0.0351756886 ],
			"min": [ -0.0461168662, 0.577937067, -0.00819948781 ],
			"type": "VEC3"
		},
		"accessor_normal_Disco_4391aaaa-df73-4396-9e33-31e4e4930b27_0_i0": {
			"bufferView": "vec3BufferView",
			"byteOffset": 875208,
			"byteStride": 12,
			"componentType": 5126,
			"count": 502,
			"type": "VEC3"
		},
		"accessor_color_Disco_4391aaaa-df73-4396-9e33-31e4e4930b27_0_i0": {
			"bufferView": "vec4BufferView",
			"byteOffset": 386304,
			"byteStride": 16,
			"componentType": 5126,
			"count": 502,
			"type": "VEC4"
		},
		"accessor_tangent_Disco_4391aaaa-df73-4396-9e33-31e4e4930b27_0_i0": {
			"bufferView": "vec4BufferView",
			"byteOffset": 394336,
			"byteStride": 16,
			"componentType": 5126,
			"count": 502,
			"type": "VEC4"
		},
		"accessor_uv0_Disco_4391aaaa-df73-4396-9e33-31e4e4930b27_0_i0": {
			"bufferView": "vec3BufferView",
			"byteOffset": 881232,
			"byteStride": 12,
			"componentType": 5126,
			"count": 502,
			"type": "VEC3"
		},
		"accessor_indices_0_Disco_4391aaaa-df73-4396-9e33-31e4e4930b27_0_i0": {
			"bufferView": "ushortBufferView",
			"byteOffset": 48288,
			"byteStride": 0,
			"componentType": 5123,
			"count": 2592,
			"max": [ 501 ],
			"min": [ 0 ],
			"type": "SCALAR"
		},
		"accessor_position_Fire_cb92b597-94ca-4255-b017-0e3f42f12f9e_0_i0": {
			"bufferView": "vec3BufferView",
			"byteOffset": 887256,
			"byteStride": 12,
			"componentType": 5126,
			"count": 182,
			"max": [ 0.00194646779, 1.06255186, 0.0481581464 ],
			"min": [ -0.0802805275, 0.650257528, -0.0965441167 ],
			"type": "VEC3"
		},
		"accessor_normal_Fire_cb92b597-94ca-4255-b017-0e3f42f12f9e_0_i0": {
			"bufferView": "vec3BufferView",
			"byteOffset": 889440,
			"byteStride": 12,
			"componentType": 5126,
			"count": 182,
			"type": "VEC3"
		},
		"accessor_color_Fire_cb92b597-94ca-4255-b017-0e3f42f12f9e_0_i0": {
			"bufferView": "vec4BufferView",
			"byteOffset": 402368,
			"byteStride": 16,
			"componentType": 5126,
			"count": 182,
			"type": "VEC4"
		},
		"accessor_tangent_Fire_cb92b597-94ca-4255-b017-0e3f42f12f9e_0_i0": {
			"bufferView": "vec4BufferView",
			"byteOffset": 405280,
			"byteStride": 16,
			"componentType": 5126,
			"count": 182,
			"type": "VEC4"
		},
		"accessor_uv0_Fire_cb92b597-94ca-4255-b017-0e3f42f12f9e_0_i0": {
			"bufferView": "vec2BufferView",
			"byteOffset": 0,
			"byteStride": 8,
			"componentType": 5126,
			"count": 182,
			"type": "VEC2"
		},
		"accessor_indices_0_Fire_cb92b597-94ca-4255-b017-0e3f42f12f9e_0_i0": {
			"bufferView": "ushortBufferView",
			"byteOffset": 53472,
			"byteStride": 0,
			"componentType": 5123,
			"count": 480,
			"max": [ 181 ],
			"min": [ 0 ],
			"type": "SCALAR"
		}
	},
	"bufferViews": {
		"ushortBufferView": {
			"buffer": "buffer_sketch",
			"byteLength": 54432,
			"byteOffset": 0,
			"target": 34963
		},
		"vec2BufferView": {
			"buffer": "buffer_sketch",
			"byteLength": 1456,
			"byteOffset": 54432,
			"target": 34962
		},
		"vec3BufferView": {
			"buffer": "buffer_sketch",
			"byteLength": 891624,
			"byteOffset": 55888,
			"target": 34962
		},
		"vec4BufferView": {
			"buffer": "buffer_sketch",
			"byteLength": 408192,
			"byteOffset": 947512,
			"target": 34962
		}
	},
	"meshes": {
		"mesh_ShinyHull_faaa4d44-fcfb-4177-96be-753ac0421ba3_0_i0": {
			"name": "mesh_ShinyHull_faaa4d44-fcfb-4177-96be-753ac0421ba3_0_i0",
			"primitives": [
				{
					"attributes": {
						"POSITION": "accessor_position_ShinyHull_faaa4d44-fcfb-4177-96be-753ac0421ba3_0_i0",
						"NORMAL": "accessor_normal_ShinyHull_faaa4d44-fcfb-4177-96be-753ac0421ba3_0_i0",
						"COLOR": "accessor_color_ShinyHull_faaa4d44-fcfb-4177-96be-753ac0421ba3_0_i0",
						"TEXCOORD_0": "accessor_uv0_ShinyHull_faaa4d44-fcfb-4177-96be-753ac0421ba3_0_i0"
					},
					"indices": "accessor_indices_0_ShinyHull_faaa4d44-fcfb-4177-96be-753ac0421ba3_0_i0",
					"material": "material_faaa4d44-fcfb-4177-96be-753ac0421ba3",
					"mode": 4
				}
			]
		},
		"mesh_Disco_4391aaaa-df73-4396-9e33-31e4e4930b27_0_i0": {
			"name": "mesh_Disco_4391aaaa-df73-4396-9e33-31e4e4930b27_0_i0",
			"primitives": [
				{
					"attributes": {
						"POSITION": "accessor_position_Disco_4391aaaa-df73-4396-9e33-31e4e4930b27_0_i0",
						"NORMAL": "accessor_normal_Disco_4391aaaa-df73-4396-9e33-31e4e4930b27_0_i0",
						"COLOR": "accessor_color_Disco_4391aaaa-df73-4396-9e33-31e4e4930b27_0_i0",
						"TANGENT": "accessor_tangent_Disco_4391aaaa-df73-4396-9e33-31e4e4930b27_0_i0",
						"TEXCOORD_0": "accessor_uv0_Disco_4391aaaa-df73-4396-9e33-31e4e4930b27_0_i0"
					},
					"indices": "accessor_indices_0_Disco_4391aaaa-df73-4396-9e33-31e4e4930b27_0_i0",
					"material": "material_4391aaaa-df73-4396-9e33-31e4e4930b27",
					"mode": 4
				}
			]
		},
		"mesh_Fire_cb92b597-94ca-4255-b017-0e3f42f12f9e_0_i0": {
			"name": "mesh_Fire_cb92b597-94ca-4255-b017-0e3f42f12f9e_0_i0",
			"primitives": [
				{
					"attributes": {
						"POSITION": "accessor_position_Fire_cb92b597-94ca-4255-b017-0e3f42f12f9e_0_i0",
						"NORMAL": "accessor_normal_Fire_cb92b597-94ca-4255-b017-0e3f42f12f9e_0_i0",
						"COLOR": "accessor_color_Fire_cb92b597-94ca-4255-b017-0e3f42f12f9e_0_i0",
						"TANGENT": "accessor_tangent_Fire_cb92b597-94ca-4255-b017-0e3f42f12f9e_0_i0",
						"TEXCOORD_0": "accessor_uv0_Fire_cb92b597-94ca-4255-b017-0e3f42f12f9e_0_i0"
					},
					"indices": "accessor_indices_0_Fire_cb92b597-94ca-4255-b017-0e3f42f12f9e_0_i0",
					"material": "material_cb92b597-94ca-4255-b017-0e3f42f12f9e",
					"mode": 4
				}
			]
		}
	},
	"shaders": {
		"vertex_faaa4d44-fcfb-4177-96be-753ac0421ba3": {
			"type": 35633,
			"uri": "https://www.tiltbrush.com/shaders/brushes/ShinyHull-faaa4d44-fcfb-4177-96be-753ac0421ba3/ShinyHull-faaa4d44-fcfb-4177-96be-753ac0421ba3-v10.0-vertex.glsl"
		},
		"fragment_faaa4d44-fcfb-4177-96be-753ac0421ba3": {
			"type": 35632,
			"uri": "https://www.tiltbrush.com/shaders/brushes/ShinyHull-faaa4d44-fcfb-4177-96be-753ac0421ba3/ShinyHull-faaa4d44-fcfb-4177-96be-753ac0421ba3-v10.0-fragment.glsl"
		},
		"vertex_4391aaaa-df73-4396-9e33-31e4e4930b27": {
			"type": 35633,
			"uri": "https://www.tiltbrush.com/shaders/brushes/Disco-4391aaaa-df73-4396-9e33-31e4e4930b27/Disco-4391aaaa-df73-4396-9e33-31e4e4930b27-v10.0-vertex.glsl"
		},
		"fragment_4391aaaa-df73-4396-9e33-31e4e4930b27": {
			"type": 35632,
			"uri": "https://www.tiltbrush.com/shaders/brushes/Disco-4391aaaa-df73-4396-9e33-31e4e4930b27/Disco-4391aaaa-df73-4396-9e33-31e4e4930b27-v10.0-fragment.glsl"
		},
		"vertex_cb92b597-94ca-4255-b017-0e3f42f12f9e": {
			"type": 35633,
			"uri": "https://www.tiltbrush.com/shaders/brushes/Fire-cb92b597-94ca-4255-b017-0e3f42f12f9e/Fire-cb92b597-94ca-4255-b017-0e3f42f12f9e-v10.0-vertex.glsl"
		},
		"fragment_cb92b597-94ca-4255-b017-0e3f42f12f9e": {
			"type": 35632,
			"uri": "https://www.tiltbrush.com/shaders/brushes/Fire-cb92b597-94ca-4255-b017-0e3f42f12f9e/Fire-cb92b597-94ca-4255-b017-0e3f42f12f9e-v10.0-fragment.glsl"
		}
	},
	"programs": {
		"program_faaa4d44-fcfb-4177-96be-753ac0421ba3": {
			"attributes": [
				"a_position",
				"a_normal",
				"a_color",
				"a_texcoord0"
			],
			"vertexShader": "vertex_faaa4d44-fcfb-4177-96be-753ac0421ba3",
			"fragmentShader": "fragment_faaa4d44-fcfb-4177-96be-753ac0421ba3"
		},
		"program_4391aaaa-df73-4396-9e33-31e4e4930b27": {
			"attributes": [
				"a_position",
				"a_normal",
				"a_color",
				"a_tangent",
				"a_texcoord0"
			],
			"vertexShader": "vertex_4391aaaa-df73-4396-9e33-31e4e4930b27",
			"fragmentShader": "fragment_4391aaaa-df73-4396-9e33-31e4e4930b27"
		},
		"program_cb92b597-94ca-4255-b017-0e3f42f12f9e": {
			"attributes": [
				"a_position",
				"a_normal",
				"a_color",
				"a_tangent",
				"a_texcoord0"
			],
			"vertexShader": "vertex_cb92b597-94ca-4255-b017-0e3f42f12f9e",
			"fragmentShader": "fragment_cb92b597-94ca-4255-b017-0e3f42f12f9e"
		}
	},
	"techniques": {
		"technique_faaa4d44-fcfb-4177-96be-753ac0421ba3": {
			"program": "program_faaa4d44-fcfb-4177-96be-753ac0421ba3",
			"parameters": {
				"position": {
					"type": 35665,
					"semantic": "POSITION"
				},
				"normal": {
					"type": 35665,
					"semantic": "NORMAL"
				},
				"color": {
					"type": 35666,
					"semantic": "COLOR"
				},
				"texcoord0": {
					"type": 35665,
					"semantic": "TEXCOORD_0"
				},
				"modelViewMatrix": {
					"type": 35676,
					"semantic": "MODELVIEW"
				},
				"projectionMatrix": {
					"type": 35676,
					"semantic": "PROJECTION"
				},
				"normalMatrix": {
					"type": 35675,
					"semantic": "MODELVIEWINVERSETRANSPOSE"
				},
				"SceneLight_0_matrix": {
					"type": 35676,
					"semantic": "MODELVIEW",
					"node": "node_SceneLight_0_i1"
				},
				"SceneLight_0_color": {
					"type": 35666,
					"node": "node_SceneLight_0_i1"
				},
				"SceneLight_1_matrix": {
					"type": 35676,
					"semantic": "MODELVIEW",
					"node": "node_SceneLight_1_i2"
				},
				"SceneLight_1_color": {
					"type": 35666,
					"node": "node_SceneLight_1_i2"
				},
				"ambient_light_color": {
					"type": 35666
				},
				"Shininess": {
					"type": 5126
				},
				"Cutoff": {
					"type": 5126
				},
				"Color": {
					"type": 35666
				},
				"SpecColor": {
					"type": 35666
				}
			},
			"attributes": {
				"a_position": "position",
				"a_normal": "normal",
				"a_color": "color",
				"a_texcoord0": "texcoord0"
			},
			"uniforms": {
				"u_modelViewMatrix": "modelViewMatrix",
				"u_projectionMatrix": "projectionMatrix",
				"u_normalMatrix": "normalMatrix",
				"u_SceneLight_0_matrix": "SceneLight_0_matrix",
				"u_SceneLight_0_color": "SceneLight_0_color",
				"u_SceneLight_1_matrix": "SceneLight_1_matrix",
				"u_SceneLight_1_color": "SceneLight_1_color",
				"u_ambient_light_color": "ambient_light_color",
				"u_Shininess": "Shininess",
				"u_Cutoff": "Cutoff",
				"u_Color": "Color",
				"u_SpecColor": "SpecColor"
			},
			"states": {
				"enable": [
					2929
				],
				"functions": {
					"depthMask": [true]
				}
			}
		},
		"technique_4391aaaa-df73-4396-9e33-31e4e4930b27": {
			"program": "program_4391aaaa-df73-4396-9e33-31e4e4930b27",
			"parameters": {
				"position": {
					"type": 35665,
					"semantic": "POSITION"
				},
				"normal": {
					"type": 35665,
					"semantic": "NORMAL"
				},
				"color": {
					"type": 35666,
					"semantic": "COLOR"
				},
				"tangent": {
					"type": 35666,
					"semantic": "TANGENT"
				},
				"texcoord0": {
					"type": 35665,
					"semantic": "TEXCOORD_0"
				},
				"modelViewMatrix": {
					"type": 35676,
					"semantic": "MODELVIEW"
				},
				"projectionMatrix": {
					"type": 35676,
					"semantic": "PROJECTION"
				},
				"normalMatrix": {
					"type": 35675,
					"semantic": "MODELVIEWINVERSETRANSPOSE"
				},
				"SceneLight_0_matrix": {
					"type": 35676,
					"semantic": "MODELVIEW",
					"node": "node_SceneLight_0_i1"
				},
				"SceneLight_0_color": {
					"type": 35666,
					"node": "node_SceneLight_0_i1"
				},
				"SceneLight_1_matrix": {
					"type": 35676,
					"semantic": "MODELVIEW",
					"node": "node_SceneLight_1_i2"
				},
				"SceneLight_1_color": {
					"type": 35666,
					"node": "node_SceneLight_1_i2"
				},
				"ambient_light_color": {
					"type": 35666
				},
				"Shininess": {
					"type": 5126
				},
				"Color": {
					"type": 35666
				},
				"SpecColor": {
					"type": 35666
				}
			},
			"attributes": {
				"a_position": "position",
				"a_normal": "normal",
				"a_color": "color",
				"a_tangent": "tangent",
				"a_texcoord0": "texcoord0"
			},
			"uniforms": {
				"u_modelViewMatrix": "modelViewMatrix",
				"u_projectionMatrix": "projectionMatrix",
				"u_normalMatrix": "normalMatrix",
				"u_SceneLight_0_matrix": "SceneLight_0_matrix",
				"u_SceneLight_0_color": "SceneLight_0_color",
				"u_SceneLight_1_matrix": "SceneLight_1_matrix",
				"u_SceneLight_1_color": "SceneLight_1_color",
				"u_ambient_light_color": "ambient_light_color",
				"u_Shininess": "Shininess",
				"u_Color": "Color",
				"u_SpecColor": "SpecColor"
			},
			"states": {
				"enable": [
					2929,
					2884
				],
				"functions": {
					"depthMask": [true]
				}
			}
		},
		"technique_cb92b597-94ca-4255-b017-0e3f42f12f9e": {
			"program": "program_cb92b597-94ca-4255-b017-0e3f42f12f9e",
			"parameters": {
				"position": {
					"type": 35665,
					"semantic": "POSITION"
				},
				"normal": {
					"type": 35665,
					"semantic": "NORMAL"
				},
				"color": {
					"type": 35666,
					"semantic": "COLOR"
				},
				"tangent": {
					"type": 35666,
					"semantic": "TANGENT"
				},
				"texcoord0": {
					"type": 35664,
					"semantic": "TEXCOORD_0"
				},
				"modelViewMatrix": {
					"type": 35676,
					"semantic": "MODELVIEW"
				},
				"projectionMatrix": {
					"type": 35676,
					"semantic": "PROJECTION"
				},
				"normalMatrix": {
					"type": 35675,
					"semantic": "MODELVIEWINVERSETRANSPOSE"
				},
				"SceneLight_0_matrix": {
					"type": 35676,
					"semantic": "MODELVIEW",
					"node": "node_SceneLight_0_i1"
				},
				"SceneLight_0_color": {
					"type": 35666,
					"node": "node_SceneLight_0_i1"
				},
				"SceneLight_1_matrix": {
					"type": 35676,
					"semantic": "MODELVIEW",
					"node": "node_SceneLight_1_i2"
				},
				"SceneLight_1_color": {
					"type": 35666,
					"node": "node_SceneLight_1_i2"
				},
				"ambient_light_color": {
					"type": 35666
				},
				"Scroll1": {
					"type": 5126
				},
				"Scroll2": {
					"type": 5126
				},
				"DisplacementIntensity": {
					"type": 5126
				},
				"EmissionGain": {
					"type": 5126
				},
				"MainTex_TexelSize": {
					"type": 35666
				},
				"MainTex": {
					"type": 35678
				}
			},
			"attributes": {
				"a_position": "position",
				"a_normal": "normal",
				"a_color": "color",
				"a_tangent": "tangent",
				"a_texcoord0": "texcoord0"
			},
			"uniforms": {
				"u_modelViewMatrix": "modelViewMatrix",
				"u_projectionMatrix": "projectionMatrix",
				"u_normalMatrix": "normalMatrix",
				"u_SceneLight_0_matrix": "SceneLight_0_matrix",
				"u_SceneLight_0_color": "SceneLight_0_color",
				"u_SceneLight_1_matrix": "SceneLight_1_matrix",
				"u_SceneLight_1_color": "SceneLight_1_color",
				"u_ambient_light_color": "ambient_light_color",
				"u_Scroll1": "Scroll1",
				"u_Scroll2": "Scroll2",
				"u_DisplacementIntensity": "DisplacementIntensity",
				"u_EmissionGain": "EmissionGain",
				"u_MainTex_TexelSize": "MainTex_TexelSize",
				"u_MainTex": "MainTex"
			},
			"states": {
				"enable": [
					2929,
					3042
				],
				"functions": {
					"blendFuncSeparate": [1, 1, 1, 1],
					"depthMask": [false]
				}
			}
		}
	},
	"samplers": {
		"sampler_LINEAR_LINEAR_MIPMAP_LINEAR_REPEAT": {
			"magFilter": 9729,
			"minFilter": 9987,
			"wrapS": 10497,
			"wrapT": 10497
		}
	},
	"textures": {
		"texture_cb92b597-94ca-4255-b017-0e3f42f12f9e_MainTex": {
			"format": 6408,
			"internalFormat": 6408,
			"sampler": "sampler_LINEAR_LINEAR_MIPMAP_LINEAR_REPEAT",
			"source": "image_cb92b597-94ca-4255-b017-0e3f42f12f9e_MainTex",
			"target": 3553,
			"type": 5121
		}
	},
	"images": {
		"image_cb92b597-94ca-4255-b017-0e3f42f12f9e_MainTex": {
			"uri": "https://www.tiltbrush.com/shaders/brushes/Fire-cb92b597-94ca-4255-b017-0e3f42f12f9e/Fire-cb92b597-94ca-4255-b017-0e3f42f12f9e-v10.0-MainTex.png"
		}
	},
	"materials": {
		"material_faaa4d44-fcfb-4177-96be-753ac0421ba3": {
			"technique": "technique_faaa4d44-fcfb-4177-96be-753ac0421ba3",
			"values": {
				"SceneLight_0_color": [1.023529, 0.7647059, 0.9294118, 1],
				"SceneLight_1_color": [0, 0, 0, 1],
				"ambient_light_color": [0.3019608, 0.3019608, 0.6039216, 1],
				"Shininess": 0.743,
				"Cutoff": 0.5,
				"Color": [1, 1, 1, 1],
				"SpecColor": [0.1985294, 0.1985294, 0.1985294, 0]
			},
			"name": "material_faaa4d44-fcfb-4177-96be-753ac0421ba3"
		},
		"material_4391aaaa-df73-4396-9e33-31e4e4930b27": {
			"technique": "technique_4391aaaa-df73-4396-9e33-31e4e4930b27",
			"values": {
				"SceneLight_0_color": [1.023529, 0.7647059, 0.9294118, 1],
				"SceneLight_1_color": [0, 0, 0, 1],
				"ambient_light_color": [0.3019608, 0.3019608, 0.6039216, 1],
				"Shininess": 0.65,
				"Color": [0, 0, 0, 1],
				"SpecColor": [0.5147059, 0.5147059, 0.5147059, 0]
			},
			"name": "material_4391aaaa-df73-4396-9e33-31e4e4930b27"
		},
		"material_cb92b597-94ca-4255-b017-0e3f42f12f9e": {
			"technique": "technique_cb92b597-94ca-4255-b017-0e3f42f12f9e",
			"values": {
				"SceneLight_0_color": [1.023529, 0.7647059, 0.9294118, 1],
				"SceneLight_1_color": [0, 0, 0, 1],
				"ambient_light_color": [0.3019608, 0.3019608, 0.6039216, 1],
				"Scroll1": 20,
				"Scroll2": 0,
				"DisplacementIntensity": 0.1,
				"EmissionGain": 0.5,
				"MainTex_TexelSize": [0.00390625, 0.00390625, 256, 256],
				"MainTex": "texture_cb92b597-94ca-4255-b017-0e3f42f12f9e_MainTex"
			},
			"name": "material_cb92b597-94ca-4255-b017-0e3f42f12f9e"
		}
	},
	"nodes": {
		"node_ShinyHull_faaa4d44-fcfb-4177-96be-753ac0421ba3_0_i0": {
			"name": "node_ShinyHull_faaa4d44-fcfb-4177-96be-753ac0421ba3_0_i0",
			"meshes": [
				"mesh_ShinyHull_faaa4d44-fcfb-4177-96be-753ac0421ba3_0_i0"
			],
			"matrix": [1, 0, 0, 0, 0, 1, 0, 0, 0, 0, 1, 0, 0, 0, 0, 1]
		},
		"node_SceneLight_0_i1": {
			"name": "node_SceneLight_0_i1",
			"light": "SceneLight_0",
			"matrix": [0.8987941, 0.1852636, -0.3972992, 0, -0.4383711, 0.3798467, -0.8145841, 0, 1.490116E-08, 0.9063078, 0.4226182, 0, -0.3144744, 1.263602, -0.08310907, 1]
		},
		"node_SceneLight_1_i2": {
			"name": "node_SceneLight_1_i2",
			"light": "SceneLight_1",
			"matrix": [1, 0, 0, 0, 0, 1, 0, 0, 0, 0, 1, 0, -0.3144744, 1.245503, -0.1857537, 1]
		},
		"node_Disco_4391aaaa-df73-4396-9e33-31e4e4930b27_0_i0": {
			"name": "node_Disco_4391aaaa-df73-4396-9e33-31e4e4930b27_0_i0",
			"meshes": [
				"mesh_Disco_4391aaaa-df73-4396-9e33-31e4e4930b27_0_i0"
			],
			"matrix": [1, 0, 0, 0, 0, 1, 0, 0, 0, 0, 1, 0, 0, 0, 0, 1]
		},
		"node_Fire_cb92b597-94ca-4255-b017-0e3f42f12f9e_0_i0": {
			"name": "node_Fire_cb92b597-94ca-4255-b017-0e3f42f12f9e_0_i0",
			"meshes": [
				"mesh_Fire_cb92b597-94ca-4255-b017-0e3f42f12f9e_0_i0"
			],
			"matrix": [1, 0, 0, 0, 0, 1, 0, 0, 0, 0, 1, 0, 0, 0, 0, 1]
		}
	},
	"scene": "defaultScene",
	"scenes": {
		"defaultScene": {
			"nodes": [
				"node_ShinyHull_faaa4d44-fcfb-4177-96be-753ac0421ba3_0_i0",
				"node_SceneLight_0_i1",
				"node_SceneLight_1_i2",
				"node_Disco_4391aaaa-df73-4396-9e33-31e4e4930b27_0_i0",
				"node_Fire_cb92b597-94ca-4255-b017-0e3f42f12f9e_0_i0"
			],
			"extras": {
				"TB_EnvironmentGuid": "c504347a-c96d-4505-853b-87b484acff9a",
				"TB_Environment": "Night Sky",
				"TB_UseGradient": "false",
				"TB_SkyColorA": "0.08235294, 0.04705882, 0.1843137",
				"TB_SkyColorB": "0, 0, 0",
				"TB_SkyGradientDirection": "0, 1, 0",
				"TB_FogColor": "0.01960784, 0.01176471, 0.04313726",
				"TB_FogDensity": "0.006",
				"TB_SkyColorHorizon": "0.08235294, 0.04705882, 0.1843137",
				"TB_SkyColorZenith": "0, 0, 0"
			}
		}
	}
}