{
	"asset": {
		"generator": "Tilt Brush 18.5.65f866c2f",
		"version": "1.1",
		"copyright": "Unknown."
	},
	"buffers": {
		"sketch": {
			"byteLength": 482312,
			"type": "arraybuffer",
			"uri": "sketch.bin"
		}
	},
	"accessors": {
		"accessor_position_UnlitHull_a8fea537-da7c-4d4b-817f-24f074725d6d_0_0": {
			"bufferView": "vec3BufferView",
			"byteOffset": 0,
			"byteStride": 12,
			"componentType": 5126,
			"count": 9486,
			"max": [ 0.1864585, 2.666854, 0.1993041 ],
			"min": [ -0.186481, 1.238854, -0.1993221 ],
			"type": "VEC3"
		 },
		"accessor_normal_UnlitHull_a8fea537-da7c-4d4b-817f-24f074725d6d_0_0": {
			"bufferView": "vec3BufferView",
			"byteOffset": 113832,
			"byteStride": 12,
			"componentType": 5126,
			"count": 9486,
			"max": [ 0.9999996, 1, 0.999961 ],
			"min": [ -0.9996825, -1, -0.9999395 ],
			"type": "VEC3"
		 },
		"accessor_color_UnlitHull_a8fea537-da7c-4d4b-817f-24f074725d6d_0_0": {
			"bufferView": "vec4BufferView",
			"byteOffset": 0,
			"byteStride": 16,
			"componentType": 5126,
			"count": 9486,
			"max": [ 0.3411765, 0.1568628, 0.8745098, 1 ],
			"min": [ 0.08235294, 0.03137255, 0.2313726, 1 ],
			"type": "VEC4"
		 },
		"accessor_uv0_UnlitHull_a8fea537-da7c-4d4b-817f-24f074725d6d_0_0": {
			"bufferView": "vec2BufferView",
			"byteOffset": 0,
			"byteStride": 8,
			"componentType": 5126,
			"count": 9486,
			"max": [ 0, 1 ],
			"min": [ 0, 1 ],
			"type": "VEC2"
		 },
		"accessor_indices_0_UnlitHull_a8fea537-da7c-4d4b-817f-24f074725d6d_0_0": {
			"bufferView": "ushortBufferView",
			"byteOffset": 0,
			"byteStride": 0,
			"componentType": 5123,
			"count": 9486,
			"max": [ 9485 ],
			"min": [ 0 ],
			"type": "SCALAR"
		 },
		"accessor_position_Fire_cb92b597-94ca-4255-b017-0e3f42f12f9e_0_0": {
			"bufferView": "vec3BufferView",
			"byteOffset": 227664,
			"byteStride": 12,
			"componentType": 5126,
			"count": 116,
			"max": [ 0.1339898, 2.568758, 0.1345557 ],
			"min": [ -0.1399317, 2.425161, -0.1194974 ],
			"type": "VEC3"
		 },
		"accessor_normal_Fire_cb92b597-94ca-4255-b017-0e3f42f12f9e_0_0": {
			"bufferView": "vec3BufferView",
			"byteOffset": 229056,
			"byteStride": 12,
			"componentType": 5126,
			"count": 116,
			"max": [ 0.9857277, -0.04944917, 0.9348437 ],
			"min": [ -0.9728749, -0.9894412, -0.8791826 ],
			"type": "VEC3"
		 },
		"accessor_color_Fire_cb92b597-94ca-4255-b017-0e3f42f12f9e_0_0": {
			"bufferView": "vec4BufferView",
			"byteOffset": 151776,
			"byteStride": 16,
			"componentType": 5126,
			"count": 116,
			"max": [ 0.827451, 0.1333333, 0.03137255, 1 ],
			"min": [ 0.827451, 0.1333333, 0.03137255, 1 ],
			"type": "VEC4"
		 },
		"accessor_tangent_Fire_cb92b597-94ca-4255-b017-0e3f42f12f9e_0_0": {
			"bufferView": "vec4BufferView",
			"byteOffset": 153632,
			"byteStride": 16,
			"componentType": 5126,
			"count": 116,
			"max": [ 0.5248861, 0.9979711, 0.8369546, 1 ],
			"min": [ -0.7457302, 0.06726788, -0.3360923, 1 ],
			"type": "VEC4"
		 },
		"accessor_uv0_Fire_cb92b597-94ca-4255-b017-0e3f42f12f9e_0_0": {
			"bufferView": "vec2BufferView",
			"byteOffset": 75888,
			"byteStride": 8,
			"componentType": 5126,
			"count": 116,
			"max": [ 1, 1 ],
			"min": [ 0, 0 ],
			"type": "VEC2"
		 },
		"accessor_indices_0_Fire_cb92b597-94ca-4255-b017-0e3f42f12f9e_0_0": {
			"bufferView": "ushortBufferView",
			"byteOffset": 18972,
			"byteStride": 0,
			"componentType": 5123,
			"count": 294,
			"max": [ 115 ],
			"min": [ 0 ],
			"type": "SCALAR"
		 }
	},
	"bufferViews": {
		"ushortBufferView": {
			"buffer": "sketch",
			"byteLength": 19560,
			"byteOffset": 0,
			"target": 34963
		},
		"vec2BufferView": {
			"buffer": "sketch",
			"byteLength": 76816,
			"byteOffset": 19560,
			"target": 34962
		},
		"vec3BufferView": {
			"buffer": "sketch",
			"byteLength": 230448,
			"byteOffset": 96376,
			"target": 34962
		},
		"vec4BufferView": {
			"buffer": "sketch",
			"byteLength": 155488,
			"byteOffset": 326824,
			"target": 34962
		}
	},
	"meshes": {
		"mesh_UnlitHull_a8fea537-da7c-4d4b-817f-24f074725d6d_0_0": {
			"name": "mesh_UnlitHull_a8fea537-da7c-4d4b-817f-24f074725d6d_0_0",
			"primitives": [
				{
					"attributes": {
						"POSITION": "accessor_position_UnlitHull_a8fea537-da7c-4d4b-817f-24f074725d6d_0_0",
						"NORMAL": "accessor_normal_UnlitHull_a8fea537-da7c-4d4b-817f-24f074725d6d_0_0",
						"COLOR": "accessor_color_UnlitHull_a8fea537-da7c-4d4b-817f-24f074725d6d_0_0",
						"TEXCOORD_0": "accessor_uv0_UnlitHull_a8fea537-da7c-4d4b-817f-24f074725d6d_0_0"
					},
					"indices": "accessor_indices_0_UnlitHull_a8fea537-da7c-4d4b-817f-24f074725d6d_0_0",
					"material": "material_a8fea537-da7c-4d4b-817f-24f074725d6d",
					"mode": 4
				}
			]
		},
		"mesh_Fire_cb92b597-94ca-4255-b017-0e3f42f12f9e_0_0": {
			"name": "mesh_Fire_cb92b597-94ca-4255-b017-0e3f42f12f9e_0_0",
			"primitives": [
				{
					"attributes": {
						"POSITION": "accessor_position_Fire_cb92b597-94ca-4255-b017-0e3f42f12f9e_0_0",
						"NORMAL": "accessor_normal_Fire_cb92b597-94ca-4255-b017-0e3f42f12f9e_0_0",
						"COLOR": "accessor_color_Fire_cb92b597-94ca-4255-b017-0e3f42f12f9e_0_0",
						"TANGENT": "accessor_tangent_Fire_cb92b597-94ca-4255-b017-0e3f42f12f9e_0_0",
						"TEXCOORD_0": "accessor_uv0_Fire_cb92b597-94ca-4255-b017-0e3f42f12f9e_0_0"
					},
					"indices": "accessor_indices_0_Fire_cb92b597-94ca-4255-b017-0e3f42f12f9e_0_0",
					"material": "material_cb92b597-94ca-4255-b017-0e3f42f12f9e",
					"mode": 4
				}
			]
		}
	},
	"shaders": {
		"vertex_a8fea537-da7c-4d4b-817f-24f074725d6d": {
			"type": 35633,
			"uri": "https://www.tiltbrush.com/shaders/brushes/UnlitHull-a8fea537-da7c-4d4b-817f-24f074725d6d/UnlitHull-a8fea537-da7c-4d4b-817f-24f074725d6d-v10.0-vertex.glsl"
		},
		"fragment_a8fea537-da7c-4d4b-817f-24f074725d6d": {
			"type": 35632,
			"uri": "https://www.tiltbrush.com/shaders/brushes/UnlitHull-a8fea537-da7c-4d4b-817f-24f074725d6d/UnlitHull-a8fea537-da7c-4d4b-817f-24f074725d6d-v10.0-fragment.glsl"
		},
		"vertex_cb92b597-94ca-4255-b017-0e3f42f12f9e": {
			"type": 35633,
			"uri": "https://www.tiltbrush.com/shaders/brushes/Fire-cb92b597-94ca-4255-b017-0e3f42f12f9e/Fire-cb92b597-94ca-4255-b017-0e3f42f12f9e-v10.0-vertex.glsl"
		},
		"fragment_cb92b597-94ca-4255-b017-0e3f42f12f9e": {
			"type": 35632,
			"uri": "https://www.tiltbrush.com/shaders/brushes/Fire-cb92b597-94ca-4255-b017-0e3f42f12f9e/Fire-cb92b597-94ca-4255-b017-0e3f42f12f9e-v10.0-fragment.glsl"
		}
	},
	"programs": {
		"program_a8fea537-da7c-4d4b-817f-24f074725d6d": {
			"attributes": [
				"a_position",
				"a_normal",
				"a_color",
				"a_texcoord0"				
			],
			"vertexShader": "vertex_a8fea537-da7c-4d4b-817f-24f074725d6d",
			"fragmentShader": "fragment_a8fea537-da7c-4d4b-817f-24f074725d6d"
		},
		"program_cb92b597-94ca-4255-b017-0e3f42f12f9e": {
			"attributes": [
				"a_position",
				"a_normal",
				"a_color",
				"a_tangent",
				"a_texcoord0"				
			],
			"vertexShader": "vertex_cb92b597-94ca-4255-b017-0e3f42f12f9e",
			"fragmentShader": "fragment_cb92b597-94ca-4255-b017-0e3f42f12f9e"
		}
	},
	"techniques": {
		"technique_a8fea537-da7c-4d4b-817f-24f074725d6d": {
			"program": "program_a8fea537-da7c-4d4b-817f-24f074725d6d",
			"parameters": {
				"position": {
					"type": 35665,
					"semantic": "POSITION"
				},
				"normal": {
					"type": 35665,
					"semantic": "NORMAL"
				},
				"color": {
					"type": 35666,
					"semantic": "COLOR"
				},
				"texcoord0": {
					"type": 35664,
					"semantic": "TEXCOORD_0"
				},
				"modelViewMatrix": {
					"type": 35676,
					"semantic": "MODELVIEW"
				},
				"projectionMatrix": {
					"type": 35676,
					"semantic": "PROJECTION"
				},
				"normalMatrix": {
					"type": 35675,
					"semantic": "MODELVIEWINVERSETRANSPOSE"
				},
				"SceneLight_0_matrix": {
					"type": 35676,
					"semantic": "MODELVIEW",
					"node": "node_SceneLight_0_-1106"
				},
				"SceneLight_0_color": {
					"type": 35666,
					"node": "node_SceneLight_0_-1106"
				},
				"SceneLight_1_matrix": {
					"type": 35676,
					"semantic": "MODELVIEW",
					"node": "node_SceneLight_1_-1112"
				},
				"SceneLight_1_color": {
					"type": 35666,
					"node": "node_SceneLight_1_-1112"
				},
				"ambient_light_color": {
					"type": 35666
				},
				"Cutoff": {
					"type": 5126
				}				
			},
			"attributes": {
				"a_position": "position",
				"a_normal": "normal",
				"a_color": "color",
				"a_texcoord0": "texcoord0"				
			},
			"uniforms": {
				"u_modelViewMatrix": "modelViewMatrix",
				"u_projectionMatrix": "projectionMatrix",
				"u_normalMatrix": "normalMatrix",
				"u_SceneLight_0_matrix": "SceneLight_0_matrix",
				"u_SceneLight_0_color": "SceneLight_0_color",
				"u_SceneLight_1_matrix": "SceneLight_1_matrix",
				"u_SceneLight_1_color": "SceneLight_1_color",
				"u_ambient_light_color": "ambient_light_color",
				"u_Cutoff": "Cutoff"				
			},
			"states": {
				"enable": [
					2929
				],
				"functions": {
					"depthMask": [true]
				}
			}
		},
		"technique_cb92b597-94ca-4255-b017-0e3f42f12f9e": {
			"program": "program_cb92b597-94ca-4255-b017-0e3f42f12f9e",
			"parameters": {
				"position": {
					"type": 35665,
					"semantic": "POSITION"
				},
				"normal": {
					"type": 35665,
					"semantic": "NORMAL"
				},
				"color": {
					"type": 35666,
					"semantic": "COLOR"
				},
				"tangent": {
					"type": 35666,
					"semantic": "TANGENT"
				},
				"texcoord0": {
					"type": 35664,
					"semantic": "TEXCOORD_0"
				},
				"modelViewMatrix": {
					"type": 35676,
					"semantic": "MODELVIEW"
				},
				"projectionMatrix": {
					"type": 35676,
					"semantic": "PROJECTION"
				},
				"normalMatrix": {
					"type": 35675,
					"semantic": "MODELVIEWINVERSETRANSPOSE"
				},
				"SceneLight_0_matrix": {
					"type": 35676,
					"semantic": "MODELVIEW",
					"node": "node_SceneLight_0_-1106"
				},
				"SceneLight_0_color": {
					"type": 35666,
					"node": "node_SceneLight_0_-1106"
				},
				"SceneLight_1_matrix": {
					"type": 35676,
					"semantic": "MODELVIEW",
					"node": "node_SceneLight_1_-1112"
				},
				"SceneLight_1_color": {
					"type": 35666,
					"node": "node_SceneLight_1_-1112"
				},
				"ambient_light_color": {
					"type": 35666
				},
				"Scroll1": {
					"type": 5126
				},
				"Scroll2": {
					"type": 5126
				},
				"DisplacementIntensity": {
					"type": 5126
				},
				"EmissionGain": {
					"type": 5126
				},
				"MainTex_TexelSize": {
					"type": 35666
				},
				"MainTex": {
					"type": 35678
				}				
			},
			"attributes": {
				"a_position": "position",
				"a_normal": "normal",
				"a_color": "color",
				"a_tangent": "tangent",
				"a_texcoord0": "texcoord0"				
			},
			"uniforms": {
				"u_modelViewMatrix": "modelViewMatrix",
				"u_projectionMatrix": "projectionMatrix",
				"u_normalMatrix": "normalMatrix",
				"u_SceneLight_0_matrix": "SceneLight_0_matrix",
				"u_SceneLight_0_color": "SceneLight_0_color",
				"u_SceneLight_1_matrix": "SceneLight_1_matrix",
				"u_SceneLight_1_color": "SceneLight_1_color",
				"u_ambient_light_color": "ambient_light_color",
				"u_Scroll1": "Scroll1",
				"u_Scroll2": "Scroll2",
				"u_DisplacementIntensity": "DisplacementIntensity",
				"u_EmissionGain": "EmissionGain",
				"u_MainTex_TexelSize": "MainTex_TexelSize",
				"u_MainTex": "MainTex"				
			},
			"states": {
				"enable": [
					2929,
					3042
				],
				"functions": {
					"blendFuncSeparate": [1, 1, 1, 1],
					"depthMask": [false]
				}
			}
		}
	},
	"samplers": {
		"sampler_LINEAR_LINEAR_REPEAT": {
			"magFilter": 9729,
			"minFilter": 9987,
			"wrapS": 10497,
			"wrapT": 10497
		}
	},
	"textures": {
		"texture_cb92b597-94ca-4255-b017-0e3f42f12f9e_MainTex": {
			"format": 6408,
			"internalFormat": 6408,
			"sampler": "sampler_LINEAR_LINEAR_REPEAT",
			"source": "image_cb92b597-94ca-4255-b017-0e3f42f12f9e_MainTex",
			"target": 3553,
			"type": 5121
		}
	},
	"images": {
		"image_cb92b597-94ca-4255-b017-0e3f42f12f9e_MainTex": {
			"uri": "https://www.tiltbrush.com/shaders/brushes/Fire-cb92b597-94ca-4255-b017-0e3f42f12f9e/Fire-cb92b597-94ca-4255-b017-0e3f42f12f9e-v10.0-MainTex.png"
		}
	},
	"materials": {
		"material_a8fea537-da7c-4d4b-817f-24f074725d6d": {
			"technique": "technique_a8fea537-da7c-4d4b-817f-24f074725d6d",
			"values": {
				"SceneLight_0_color": [0.7780392, 0.8156863, 0.9913726, 1],
				"SceneLight_1_color": [0.4282353, 0.4211765, 0.3458824, 1],
				"ambient_light_color": [0.3921569, 0.3921569, 0.3921569, 1],
				"Cutoff": 0.5				
			},
			"name": "material_a8fea537-da7c-4d4b-817f-24f074725d6d"
		},
		"material_cb92b597-94ca-4255-b017-0e3f42f12f9e": {
			"technique": "technique_cb92b597-94ca-4255-b017-0e3f42f12f9e",
			"values": {
				"SceneLight_0_color": [0.7780392, 0.8156863, 0.9913726, 1],
				"SceneLight_1_color": [0.4282353, 0.4211765, 0.3458824, 1],
				"ambient_light_color": [0.3921569, 0.3921569, 0.3921569, 1],
				"Scroll1": 20,
				"Scroll2": 0,
				"DisplacementIntensity": 0.1,
				"EmissionGain": 0.5,
				"MainTex_TexelSize": [0.00390625, 0.00390625, 256, 256],
				"MainTex": "texture_cb92b597-94ca-4255-b017-0e3f42f12f9e_MainTex"				
			},
			"name": "material_cb92b597-94ca-4255-b017-0e3f42f12f9e"
		}
	},
	"nodes": {
		"node_UnlitHull_a8fea537-da7c-4d4b-817f-24f074725d6d_0_0": {
			"name": "node_UnlitHull_a8fea537-da7c-4d4b-817f-24f074725d6d_0_0",
			"meshes": [
				"mesh_UnlitHull_a8fea537-da7c-4d4b-817f-24f074725d6d_0_0"
			],
			"matrix": [1, 0, 0, 0, 0, 1, 0, 0, 0, 0, 1, 0, 0, 0, 0, 1]
		},
		"node_SceneLight_0_-1106": {
			"name": "node_SceneLight_0_-1106",
			"light": "SceneLight_0",
			"matrix": [0.898794, 0.2191856, -0.3796406, 0, -0.4383712, 0.449397, -0.7783785, 0, -1.490116E-08, 0.8660254, 0.4999999, 0, 5.154572, -4.598536, -2.556378, 1]
		},
		"node_SceneLight_1_-1112": {
			"name": "node_SceneLight_1_-1112",
			"light": "SceneLight_1",
			"matrix": [0.7660444, -0.4924039, -0.4131759, 0, -0.6427876, -0.5868242, -0.4924039, 0, 8.940697E-08, 0.6427876, -0.7660446, 0, 5.154571, -4.74364, -3.379307, 1]
		},
		"node_Fire_cb92b597-94ca-4255-b017-0e3f42f12f9e_0_0": {
			"name": "node_Fire_cb92b597-94ca-4255-b017-0e3f42f12f9e_0_0",
			"meshes": [
				"mesh_Fire_cb92b597-94ca-4255-b017-0e3f42f12f9e_0_0"
			],
			"matrix": [1, 0, 0, 0, 0, 1, 0, 0, 0, 0, 1, 0, 0, 0, 0, 1]
		}
	},
	"scene": "defaultScene",
	"scenes": {
		"defaultScene": {
			"nodes": [
				"node_UnlitHull_a8fea537-da7c-4d4b-817f-24f074725d6d_0_0",
				"node_SceneLight_0_-1106",
				"node_SceneLight_1_-1112",
				"node_Fire_cb92b597-94ca-4255-b017-0e3f42f12f9e_0_0"
			],
			"extras": {
				"TB_EnvironmentGuid": "9b89b0a4-c41e-4b78-82a1-22f10a238357",
				"TB_Environment": "White",
				"TB_UseGradient": "true",
				"TB_SkyColorA": "0.7843137, 0.7843137, 0.7843137",
				"TB_SkyColorB": "0.7843137, 0.7843137, 0.7843137",
				"TB_SkyGradientDirection": "0, 1, 0",
				"TB_FogColor": "1, 1, 1",
				"TB_FogDensity": "0",
				"TB_SkyColorHorizon": "0.7843137, 0.7843137, 0.7843137",
				"TB_SkyColorZenith": "0.7843137, 0.7843137, 0.7843137"
			}
		}
	}
}