{
	"asset": {
		"generator": "Tilt Brush 23.2.28f36f08b",
		"version": "1.1",
		"copyright": "Unknown."
	},
	"buffers": {
		"buffer_sketch": {
			"byteLength": 738020,
			"type": "arraybuffer",
			"uri": "sketch.bin"
		}
	},
	"accessors": {
		"accessor_position_MatteHull_79348357-432d-4746-8e29-0e25c112e3aa_0_i0": {
			"bufferView": "vec3BufferView",
			"byteOffset": 0,
			"byteStride": 12,
			"componentType": 5126,
			"count": 11850,
			"max": [ 0.582583606, 0.844500959, -0.174825996 ],
			"min": [ 0.401368678, 0.355092436, -0.635098815 ],
			"type": "VEC3"
		},
		"accessor_normal_MatteHull_79348357-432d-4746-8e29-0e25c112e3aa_0_i0": {
			"bufferView": "vec3BufferView",
			"byteOffset": 142200,
			"byteStride": 12,
			"componentType": 5126,
			"count": 11850,
			"type": "VEC3"
		},
		"accessor_color_MatteHull_79348357-432d-4746-8e29-0e25c112e3aa_0_i0": {
			"bufferView": "vec4BufferView",
			"byteOffset": 0,
			"byteStride": 16,
			"componentType": 5126,
			"count": 11850,
			"type": "VEC4"
		},
		"accessor_uv0_MatteHull_79348357-432d-4746-8e29-0e25c112e3aa_0_i0": {
			"bufferView": "vec3BufferView",
			"byteOffset": 284400,
			"byteStride": 12,
			"componentType": 5126,
			"count": 11850,
			"type": "VEC3"
		},
		"accessor_indices_0_MatteHull_79348357-432d-4746-8e29-0e25c112e3aa_0_i0": {
			"bufferView": "ushortBufferView",
			"byteOffset": 0,
			"byteStride": 0,
			"componentType": 5123,
			"count": 11850,
			"max": [ 11849 ],
			"min": [ 0 ],
			"type": "SCALAR"
		},
		"accessor_position_Petal_e0abbc80-0f80-e854-4970-8924a0863dcc_0_i0": {
			"bufferView": "vec3BufferView",
			"byteOffset": 426600,
			"byteStride": 12,
			"componentType": 5126,
			"count": 1330,
			"max": [ 0.530816019, 0.802659929, -0.203794032 ],
			"min": [ 0.362012982, 0.411000341, -0.586882234 ],
			"type": "VEC3"
		},
		"accessor_normal_Petal_e0abbc80-0f80-e854-4970-8924a0863dcc_0_i0": {
			"bufferView": "vec3BufferView",
			"byteOffset": 442560,
			"byteStride": 12,
			"componentType": 5126,
			"count": 1330,
			"type": "VEC3"
		},
		"accessor_color_Petal_e0abbc80-0f80-e854-4970-8924a0863dcc_0_i0": {
			"bufferView": "vec4BufferView",
			"byteOffset": 189600,
			"byteStride": 16,
			"componentType": 5126,
			"count": 1330,
			"type": "VEC4"
		},
		"accessor_tangent_Petal_e0abbc80-0f80-e854-4970-8924a0863dcc_0_i0": {
			"bufferView": "vec4BufferView",
			"byteOffset": 210880,
			"byteStride": 16,
			"componentType": 5126,
			"count": 1330,
			"type": "VEC4"
		},
		"accessor_uv0_Petal_e0abbc80-0f80-e854-4970-8924a0863dcc_0_i0": {
			"bufferView": "vec3BufferView",
			"byteOffset": 458520,
			"byteStride": 12,
			"componentType": 5126,
			"count": 1330,
			"type": "VEC3"
		},
		"accessor_indices_0_Petal_e0abbc80-0f80-e854-4970-8924a0863dcc_0_i0": {
			"bufferView": "ushortBufferView",
			"byteOffset": 23700,
			"byteStride": 0,
			"componentType": 5123,
			"count": 3840,
			"max": [ 1329 ],
			"min": [ 0 ],
			"type": "SCALAR"
		}
	},
	"bufferViews": {
		"ushortBufferView": {
			"buffer": "buffer_sketch",
			"byteLength": 31380,
			"byteOffset": 0,
			"target": 34963
		},
		"vec3BufferView": {
			"buffer": "buffer_sketch",
			"byteLength": 474480,
			"byteOffset": 31380,
			"target": 34962
		},
		"vec4BufferView": {
			"buffer": "buffer_sketch",
			"byteLength": 232160,
			"byteOffset": 505860,
			"target": 34962
		}
	},
	"meshes": {
		"mesh_MatteHull_79348357-432d-4746-8e29-0e25c112e3aa_0_i0": {
			"name": "mesh_MatteHull_79348357-432d-4746-8e29-0e25c112e3aa_0_i0",
			"primitives": [
				{
					"attributes": {
						"POSITION": "accessor_position_MatteHull_79348357-432d-4746-8e29-0e25c112e3aa_0_i0",
						"NORMAL": "accessor_normal_MatteHull_79348357-432d-4746-8e29-0e25c112e3aa_0_i0",
						"COLOR": "accessor_color_MatteHull_79348357-432d-4746-8e29-0e25c112e3aa_0_i0",
						"TEXCOORD_0": "accessor_uv0_MatteHull_79348357-432d-4746-8e29-0e25c112e3aa_0_i0"
					},
					"indices": "accessor_indices_0_MatteHull_79348357-432d-4746-8e29-0e25c112e3aa_0_i0",
					"material": "material_79348357-432d-4746-8e29-0e25c112e3aa",
					"mode": 4
				}
			]
		},
		"mesh_Petal_e0abbc80-0f80-e854-4970-8924a0863dcc_0_i0": {
			"name": "mesh_Petal_e0abbc80-0f80-e854-4970-8924a0863dcc_0_i0",
			"primitives": [
				{
					"attributes": {
						"POSITION": "accessor_position_Petal_e0abbc80-0f80-e854-4970-8924a0863dcc_0_i0",
						"NORMAL": "accessor_normal_Petal_e0abbc80-0f80-e854-4970-8924a0863dcc_0_i0",
						"COLOR": "accessor_color_Petal_e0abbc80-0f80-e854-4970-8924a0863dcc_0_i0",
						"TANGENT": "accessor_tangent_Petal_e0abbc80-0f80-e854-4970-8924a0863dcc_0_i0",
						"TEXCOORD_0": "accessor_uv0_Petal_e0abbc80-0f80-e854-4970-8924a0863dcc_0_i0"
					},
					"indices": "accessor_indices_0_Petal_e0abbc80-0f80-e854-4970-8924a0863dcc_0_i0",
					"material": "material_e0abbc80-0f80-e854-4970-8924a0863dcc",
					"mode": 4
				}
			]
		}
	},
	"shaders": {
		"vertex_79348357-432d-4746-8e29-0e25c112e3aa": {
			"type": 35633,
			"uri": "https://www.tiltbrush.com/shaders/brushes/MatteHull-79348357-432d-4746-8e29-0e25c112e3aa/MatteHull-79348357-432d-4746-8e29-0e25c112e3aa-v10.0-vertex.glsl"
		},
		"fragment_79348357-432d-4746-8e29-0e25c112e3aa": {
			"type": 35632,
			"uri": "https://www.tiltbrush.com/shaders/brushes/MatteHull-79348357-432d-4746-8e29-0e25c112e3aa/MatteHull-79348357-432d-4746-8e29-0e25c112e3aa-v10.0-fragment.glsl"
		},
		"vertex_e0abbc80-0f80-e854-4970-8924a0863dcc": {
			"type": 35633,
			"uri": "https://www.tiltbrush.com/shaders/brushes/Petal-e0abbc80-0f80-e854-4970-8924a0863dcc/Petal-e0abbc80-0f80-e854-4970-8924a0863dcc-v10.0-vertex.glsl"
		},
		"fragment_e0abbc80-0f80-e854-4970-8924a0863dcc": {
			"type": 35632,
			"uri": "https://www.tiltbrush.com/shaders/brushes/Petal-e0abbc80-0f80-e854-4970-8924a0863dcc/Petal-e0abbc80-0f80-e854-4970-8924a0863dcc-v10.0-fragment.glsl"
		}
	},
	"programs": {
		"program_79348357-432d-4746-8e29-0e25c112e3aa": {
			"attributes": [
				"a_position",
				"a_normal",
				"a_color",
				"a_texcoord0"
			],
			"vertexShader": "vertex_79348357-432d-4746-8e29-0e25c112e3aa",
			"fragmentShader": "fragment_79348357-432d-4746-8e29-0e25c112e3aa"
		},
		"program_e0abbc80-0f80-e854-4970-8924a0863dcc": {
			"attributes": [
				"a_position",
				"a_normal",
				"a_color",
				"a_tangent",
				"a_texcoord0"
			],
			"vertexShader": "vertex_e0abbc80-0f80-e854-4970-8924a0863dcc",
			"fragmentShader": "fragment_e0abbc80-0f80-e854-4970-8924a0863dcc"
		}
	},
	"techniques": {
		"technique_79348357-432d-4746-8e29-0e25c112e3aa": {
			"program": "program_79348357-432d-4746-8e29-0e25c112e3aa",
			"parameters": {
				"position": {
					"type": 35665,
					"semantic": "POSITION"
				},
				"normal": {
					"type": 35665,
					"semantic": "NORMAL"
				},
				"color": {
					"type": 35666,
					"semantic": "COLOR"
				},
				"texcoord0": {
					"type": 35665,
					"semantic": "TEXCOORD_0"
				},
				"modelViewMatrix": {
					"type": 35676,
					"semantic": "MODELVIEW"
				},
				"projectionMatrix": {
					"type": 35676,
					"semantic": "PROJECTION"
				},
				"normalMatrix": {
					"type": 35675,
					"semantic": "MODELVIEWINVERSETRANSPOSE"
				},
				"SceneLight_0_matrix": {
					"type": 35676,
					"semantic": "MODELVIEW",
					"node": "node_SceneLight_0_i1"
				},
				"SceneLight_0_color": {
					"type": 35666,
					"node": "node_SceneLight_0_i1"
				},
				"SceneLight_1_matrix": {
					"type": 35676,
					"semantic": "MODELVIEW",
					"node": "node_SceneLight_1_i2"
				},
				"SceneLight_1_color": {
					"type": 35666,
					"node": "node_SceneLight_1_i2"
				},
				"ambient_light_color": {
					"type": 35666
				},
				"Cutoff": {
					"type": 5126
				},
				"Color": {
					"type": 35666
				}
			},
			"attributes": {
				"a_position": "position",
				"a_normal": "normal",
				"a_color": "color",
				"a_texcoord0": "texcoord0"
			},
			"uniforms": {
				"u_modelViewMatrix": "modelViewMatrix",
				"u_projectionMatrix": "projectionMatrix",
				"u_normalMatrix": "normalMatrix",
				"u_SceneLight_0_matrix": "SceneLight_0_matrix",
				"u_SceneLight_0_color": "SceneLight_0_color",
				"u_SceneLight_1_matrix": "SceneLight_1_matrix",
				"u_SceneLight_1_color": "SceneLight_1_color",
				"u_ambient_light_color": "ambient_light_color",
				"u_Cutoff": "Cutoff",
				"u_Color": "Color"
			},
			"states": {
				"enable": [
					2929
				],
				"functions": {
					"depthMask": [true]
				}
			}
		},
		"technique_e0abbc80-0f80-e854-4970-8924a0863dcc": {
			"program": "program_e0abbc80-0f80-e854-4970-8924a0863dcc",
			"parameters": {
				"position": {
					"type": 35665,
					"semantic": "POSITION"
				},
				"normal": {
					"type": 35665,
					"semantic": "NORMAL"
				},
				"color": {
					"type": 35666,
					"semantic": "COLOR"
				},
				"tangent": {
					"type": 35666,
					"semantic": "TANGENT"
				},
				"texcoord0": {
					"type": 35665,
					"semantic": "TEXCOORD_0"
				},
				"modelViewMatrix": {
					"type": 35676,
					"semantic": "MODELVIEW"
				},
				"projectionMatrix": {
					"type": 35676,
					"semantic": "PROJECTION"
				},
				"normalMatrix": {
					"type": 35675,
					"semantic": "MODELVIEWINVERSETRANSPOSE"
				},
				"SceneLight_0_matrix": {
					"type": 35676,
					"semantic": "MODELVIEW",
					"node": "node_SceneLight_0_i1"
				},
				"SceneLight_0_color": {
					"type": 35666,
					"node": "node_SceneLight_0_i1"
				},
				"SceneLight_1_matrix": {
					"type": 35676,
					"semantic": "MODELVIEW",
					"node": "node_SceneLight_1_i2"
				},
				"SceneLight_1_color": {
					"type": 35666,
					"node": "node_SceneLight_1_i2"
				},
				"ambient_light_color": {
					"type": 35666
				},
				"Shininess": {
					"type": 5126
				},
				"SpecColor": {
					"type": 35666
				}
			},
			"attributes": {
				"a_position": "position",
				"a_normal": "normal",
				"a_color": "color",
				"a_tangent": "tangent",
				"a_texcoord0": "texcoord0"
			},
			"uniforms": {
				"u_modelViewMatrix": "modelViewMatrix",
				"u_projectionMatrix": "projectionMatrix",
				"u_normalMatrix": "normalMatrix",
				"u_SceneLight_0_matrix": "SceneLight_0_matrix",
				"u_SceneLight_0_color": "SceneLight_0_color",
				"u_SceneLight_1_matrix": "SceneLight_1_matrix",
				"u_SceneLight_1_color": "SceneLight_1_color",
				"u_ambient_light_color": "ambient_light_color",
				"u_Shininess": "Shininess",
				"u_SpecColor": "SpecColor"
			},
			"states": {
				"enable": [
					2929
				],
				"functions": {
					"depthMask": [true]
				}
			}
		}
	},
	"materials": {
		"material_79348357-432d-4746-8e29-0e25c112e3aa": {
			"technique": "technique_79348357-432d-4746-8e29-0e25c112e3aa",
			"values": {
				"SceneLight_0_color": [1.023529, 0.7647059, 0.9294118, 1],
				"SceneLight_1_color": [0, 0, 0, 1],
				"ambient_light_color": [0.3019608, 0.3019608, 0.6039216, 1],
				"Cutoff": 0.5,
				"Color": [1, 1, 1, 1]
			},
			"name": "material_79348357-432d-4746-8e29-0e25c112e3aa"
		},
		"material_e0abbc80-0f80-e854-4970-8924a0863dcc": {
			"technique": "technique_e0abbc80-0f80-e854-4970-8924a0863dcc",
			"values": {
				"SceneLight_0_color": [1.023529, 0.7647059, 0.9294118, 1],
				"SceneLight_1_color": [0, 0, 0, 1],
				"ambient_light_color": [0.3019608, 0.3019608, 0.6039216, 1],
				"Shininess": 0.01,
				"SpecColor": [0, 0, 0, 0]
			},
			"name": "material_e0abbc80-0f80-e854-4970-8924a0863dcc"
		}
	},
	"nodes": {
		"node_MatteHull_79348357-432d-4746-8e29-0e25c112e3aa_0_i0": {
			"name": "node_MatteHull_79348357-432d-4746-8e29-0e25c112e3aa_0_i0",
			"meshes": [
				"mesh_MatteHull_79348357-432d-4746-8e29-0e25c112e3aa_0_i0"
			],
			"matrix": [1, 0, 0, 0, 0, 1, 0, 0, 0, 0, 1, 0, 0, 0, 0, 1]
		},
		"node_SceneLight_0_i1": {
			"name": "node_SceneLight_0_i1",
			"light": "SceneLight_0",
			"matrix": [0.8987941, 0.1852636, -0.3972992, 0, -0.4383711, 0.3798467, -0.8145841, 0, 1.490116E-08, 0.9063078, 0.4226182, 0, 0, 0.07816665, 0.0220875, 1]
		},
		"node_SceneLight_1_i2": {
			"name": "node_SceneLight_1_i2",
			"light": "SceneLight_1",
			"matrix": [1, 0, 0, 0, 0, 1, 0, 0, 0, 0, 1, 0, 3.874302E-09, 0.0636562, -0.06020541, 1]
		},
		"node_Petal_e0abbc80-0f80-e854-4970-8924a0863dcc_0_i0": {
			"name": "node_Petal_e0abbc80-0f80-e854-4970-8924a0863dcc_0_i0",
			"meshes": [
				"mesh_Petal_e0abbc80-0f80-e854-4970-8924a0863dcc_0_i0"
			],
			"matrix": [1, 0, 0, 0, 0, 1, 0, 0, 0, 0, 1, 0, 0, 0, 0, 1]
		}
	},
	"scene": "defaultScene",
	"scenes": {
		"defaultScene": {
			"nodes": [
				"node_MatteHull_79348357-432d-4746-8e29-0e25c112e3aa_0_i0",
				"node_SceneLight_0_i1",
				"node_SceneLight_1_i2",
				"node_Petal_e0abbc80-0f80-e854-4970-8924a0863dcc_0_i0"
			],
			"extras": {
				"TB_EnvironmentGuid": "c504347a-c96d-4505-853b-87b484acff9a",
				"TB_Environment": "Night Sky",
				"TB_UseGradient": "false",
				"TB_SkyColorA": "0.08235294, 0.04705882, 0.1843137",
				"TB_SkyColorB": "0, 0, 0",
				"TB_SkyGradientDirection": "0, 1, 0",
				"TB_FogColor": "0.01960784, 0.01176471, 0.04313726",
				"TB_FogDensity": "0.006",
				"TB_SkyColorHorizon": "0.08235294, 0.04705882, 0.1843137",
				"TB_SkyColorZenith": "0, 0, 0"
			}
		}
	}
}